<svg width="30" height="34" viewBox="0 0 30 34" fill="none" xmlns="http://www.w3.org/2000/svg" xmlns:xlink="http://www.w3.org/1999/xlink">
<line x1="0" y1="5.345" x2="28.644" y2="5.345" stroke="#222222" stroke-width="1" stroke-miterlimit="3.999327" stroke-linecap="round" stroke-linejoin="round"/>
<path d="M26.461,6.345C26.461,5.793 26.013,5.345 25.461,5.345C24.909,5.345 24.461,5.793 24.461,6.345L26.461,6.345ZM3.183,28.553L2.183,28.553L3.183,28.553ZM4.183,6.345C4.183,5.793 3.735,5.345 3.183,5.345C2.631,5.345 2.183,5.793 2.183,6.345L4.183,6.345ZM6.957,6.345C6.957,6.898 7.405,7.345 7.957,7.345C8.509,7.345 8.957,6.898 8.957,6.345L6.957,6.345ZM11.139,0L11.139,-1L11.139,0ZM17.505,0L17.505,-1L17.505,0ZM19.687,6.345C19.687,6.898 20.135,7.345 20.687,7.345C21.24,7.345 21.687,6.898 21.687,6.345L19.687,6.345ZM24.461,6.345L24.461,28.553L26.461,28.553L26.461,6.345L24.461,6.345ZM24.461,28.553C24.461,29.129 24.232,29.681 23.823,30.089L25.235,31.505C26.02,30.723 26.461,29.661 26.461,28.553L24.461,28.553ZM23.823,30.089C23.414,30.496 22.858,30.726 22.279,30.726L22.279,32.726C23.387,32.726 24.45,32.287 25.235,31.505L23.823,30.089ZM22.279,30.726L6.365,30.726L6.365,32.726L22.279,32.726L22.279,30.726ZM6.365,30.726C5.786,30.726 5.23,30.496 4.821,30.089L3.409,31.505C4.194,32.287 5.257,32.726 6.365,32.726L6.365,30.726ZM4.821,30.089C4.412,29.681 4.183,29.129 4.183,28.553L2.183,28.553C2.183,29.661 2.624,30.723 3.409,31.505L4.821,30.089ZM4.183,28.553L4.183,6.345L2.183,6.345L2.183,28.553L4.183,28.553ZM8.957,6.345L8.957,3.173L6.957,3.173L6.957,6.345L8.957,6.345ZM8.957,3.173C8.957,2.597 9.186,2.045 9.595,1.637L8.183,0.221C7.398,1.003 6.957,2.065 6.957,3.173L8.957,3.173ZM9.595,1.637C10.004,1.23 10.56,1 11.139,1L11.139,-1C10.031,-1 8.968,-0.561 8.183,0.221L9.595,1.637ZM11.139,1L17.505,1L17.505,-1L11.139,-1L11.139,1ZM17.505,1C18.085,1 18.64,1.23 19.049,1.637L20.461,0.221C19.676,-0.561 18.613,-1 17.505,-1L17.505,1ZM19.049,1.637C19.458,2.045 19.687,2.597 19.687,3.173L21.687,3.173C21.687,2.065 21.246,1.003 20.461,0.221L19.049,1.637ZM19.687,3.173L19.687,6.345L21.687,6.345L21.687,3.173L19.687,3.173Z" fill="#222222"/>
<line x1="10.139" y1="14.277" x2="10.139" y2="23.795" stroke="#222222" stroke-width="1" stroke-miterlimit="3.999327" stroke-linecap="round" stroke-linejoin="round"/>
<line x1="16.504" y1="14.277" x2="16.504" y2="23.795" stroke="#222222" stroke-width="1" stroke-miterlimit="3.999327" stroke-linecap="round" stroke-linejoin="round"/>
</svg>
