<svg width="38" height="44" viewBox="0 0 38 44" fill="none" xmlns="http://www.w3.org/2000/svg" xmlns:xlink="http://www.w3.org/1999/xlink">
<path d="M34.727,18.364L36.727,18.364L34.727,18.364ZM18.364,42L17.254,43.664C17.926,44.112 18.801,44.112 19.473,43.664L18.364,42ZM2,18.364L0,18.364L2,18.364ZM18.364,2L18.364,4L18.364,2ZM32.727,18.364C32.727,23.923 29.105,29.345 25.094,33.579C23.129,35.653 21.157,37.351 19.675,38.532C18.935,39.121 18.321,39.578 17.896,39.885C17.683,40.038 17.518,40.154 17.409,40.23C17.354,40.268 17.313,40.296 17.287,40.314C17.274,40.323 17.265,40.329 17.259,40.333C17.256,40.335 17.255,40.336 17.254,40.336C17.253,40.337 17.253,40.337 17.253,40.337C17.253,40.337 17.254,40.336 17.254,40.336C17.254,40.336 17.254,40.336 18.364,42C19.473,43.664 19.474,43.664 19.474,43.663C19.474,43.663 19.475,43.663 19.476,43.662C19.477,43.662 19.478,43.661 19.48,43.66C19.483,43.658 19.487,43.655 19.492,43.651C19.502,43.645 19.516,43.635 19.534,43.623C19.57,43.598 19.621,43.564 19.686,43.519C19.816,43.428 20.003,43.297 20.238,43.128C20.707,42.788 21.372,42.294 22.166,41.661C23.752,40.399 25.871,38.574 27.997,36.33C32.168,31.928 36.727,25.531 36.727,18.364L32.727,18.364ZM18.364,42C19.473,40.336 19.473,40.336 19.474,40.336C19.474,40.336 19.474,40.337 19.474,40.337C19.474,40.337 19.474,40.337 19.474,40.336C19.473,40.336 19.471,40.335 19.468,40.333C19.463,40.329 19.453,40.323 19.44,40.314C19.414,40.296 19.373,40.268 19.319,40.23C19.209,40.154 19.044,40.038 18.832,39.885C18.406,39.578 17.792,39.121 17.053,38.532C15.57,37.351 13.599,35.653 11.634,33.579C7.622,29.345 4,23.923 4,18.364L0,18.364C0,25.531 4.559,31.928 8.73,36.33C10.856,38.574 12.975,40.399 14.561,41.661C15.355,42.294 16.02,42.788 16.49,43.128C16.725,43.297 16.911,43.428 17.041,43.519C17.106,43.564 17.157,43.598 17.193,43.623C17.211,43.635 17.225,43.645 17.235,43.651C17.24,43.655 17.245,43.658 17.248,43.66C17.249,43.661 17.251,43.662 17.252,43.662C17.252,43.663 17.253,43.663 17.253,43.663C17.254,43.664 17.254,43.664 18.364,42ZM4,18.364C4,14.554 5.513,10.901 8.207,8.207L5.379,5.379C1.935,8.822 0,13.493 0,18.364L4,18.364ZM8.207,8.207C10.901,5.513 14.554,4 18.364,4L18.364,0C13.493,0 8.822,1.935 5.379,5.379L8.207,8.207ZM18.364,4C22.173,4 25.827,5.513 28.52,8.207L31.349,5.379C27.905,1.935 23.234,0 18.364,0L18.364,4ZM28.52,8.207C31.214,10.901 32.727,14.554 32.727,18.364L36.727,18.364C36.727,13.493 34.793,8.822 31.349,5.379L28.52,8.207Z" fill="#222222"/>
<path d="M21.818,18.364C21.818,20.272 20.272,21.818 18.364,21.818L18.364,25.818C22.481,25.818 25.818,22.481 25.818,18.364L21.818,18.364ZM18.364,21.818C16.456,21.818 14.909,20.272 14.909,18.364L10.909,18.364C10.909,22.481 14.247,25.818 18.364,25.818L18.364,21.818ZM14.909,18.364C14.909,16.456 16.456,14.909 18.364,14.909L18.364,10.909C14.247,10.909 10.909,14.247 10.909,18.364L14.909,18.364ZM18.364,14.909C20.272,14.909 21.818,16.456 21.818,18.364L25.818,18.364C25.818,14.247 22.481,10.909 18.364,10.909L18.364,14.909Z" fill="#222222"/>
</svg>
