<svg width="40" height="44" viewBox="0 0 40 44" fill="none" xmlns="http://www.w3.org/2000/svg" xmlns:xlink="http://www.w3.org/1999/xlink">
<path d="M1.902,16L0.661,14.431C0.182,14.811 -0.098,15.388 -0.098,16L1.902,16ZM19.607,2L20.847,0.431C20.12,-0.144 19.093,-0.144 18.366,0.431L19.607,2ZM37.312,16L39.312,16C39.312,15.388 39.032,14.811 38.552,14.431L37.312,16ZM1.902,38L-0.098,38L1.902,38ZM3.142,17.569L20.847,3.569L18.366,0.431L0.661,14.431L3.142,17.569ZM18.366,3.569L36.071,17.569L38.552,14.431L20.847,0.431L18.366,3.569ZM35.312,16L35.312,38L39.312,38L39.312,16L35.312,16ZM35.312,38C35.312,38.541 35.1,39.053 34.733,39.426L37.585,42.231C38.694,41.103 39.312,39.581 39.312,38L35.312,38ZM34.733,39.426C34.368,39.797 33.879,40 33.377,40L33.377,44C34.962,44 36.475,43.36 37.585,42.231L34.733,39.426ZM33.377,40L5.836,40L5.836,44L33.377,44L33.377,40ZM5.836,40C5.334,40 4.845,39.797 4.48,39.426L1.628,42.231C2.739,43.36 4.251,44 5.836,44L5.836,40ZM4.48,39.426C4.113,39.053 3.902,38.541 3.902,38L-0.098,38C-0.098,39.581 0.519,41.103 1.628,42.231L4.48,39.426ZM3.902,38L3.902,16L-0.098,16L-0.098,38L3.902,38Z" fill="#A8A6A7"/>
<path d="M11.705,42C11.705,43.105 12.601,44 13.705,44C14.81,44 15.705,43.105 15.705,42L11.705,42ZM13.705,22L13.705,20C12.601,20 11.705,20.895 11.705,22L13.705,22ZM25.508,22L27.508,22C27.508,20.895 26.613,20 25.508,20L25.508,22ZM23.508,42C23.508,43.105 24.404,44 25.508,44C26.613,44 27.508,43.105 27.508,42L23.508,42ZM15.705,42L15.705,22L11.705,22L11.705,42L15.705,42ZM13.705,24L25.508,24L25.508,20L13.705,20L13.705,24ZM23.508,22L23.508,42L27.508,42L27.508,22L23.508,22Z" fill="#A8A6A7"/>
</svg>
