<svg width="50" height="44" viewBox="0 0 50 44" fill="none" xmlns="http://www.w3.org/2000/svg" xmlns:xlink="http://www.w3.org/1999/xlink">
<path d="M43.434,5.536L42.008,6.938L42.008,6.939L43.434,5.536ZM35.039,2L35.039,4L35.039,2ZM26.645,5.536L28.07,6.939L28.071,6.938L26.645,5.536ZM24.357,7.862L22.931,9.264C23.307,9.647 23.821,9.862 24.357,9.862C24.893,9.862 25.407,9.647 25.783,9.264L24.357,7.862ZM22.07,5.536L20.644,6.939L20.644,6.939L22.07,5.536ZM5.28,22.605L3.855,24.008L3.855,24.008L5.28,22.605ZM7.568,24.931L6.142,26.333L7.568,24.931ZM24.357,42L22.931,43.402C23.307,43.785 23.821,44 24.357,44C24.893,44 25.407,43.785 25.783,43.402L24.357,42ZM43.434,22.605L42.008,21.203L42.008,21.203L43.434,22.605ZM44.86,4.134C43.574,2.826 42.044,1.786 40.359,1.076L38.806,4.762C40.001,5.266 41.09,6.005 42.008,6.938L44.86,4.134ZM40.359,1.076C38.673,0.366 36.866,0 35.039,0L35.039,4C36.331,4 37.611,4.259 38.806,4.762L40.359,1.076ZM35.039,0C33.213,0 31.405,0.366 29.719,1.076L31.272,4.762C32.467,4.259 33.747,4 35.039,4L35.039,0ZM29.719,1.076C28.034,1.786 26.505,2.826 25.218,4.134L28.071,6.938C28.989,6.005 30.077,5.266 31.272,4.762L29.719,1.076ZM25.219,4.134L22.931,6.459L25.783,9.264L28.07,6.939L25.219,4.134ZM25.783,6.459L23.495,4.134L20.644,6.939L22.931,9.264L25.783,6.459ZM23.495,4.134C20.897,1.492 17.365,0.001 13.675,0.001L13.675,4.001C16.282,4.001 18.79,5.054 20.644,6.939L23.495,4.134ZM13.675,0.001C9.985,0.001 6.453,1.492 3.855,4.134L6.706,6.939C8.56,5.054 11.068,4.001 13.675,4.001L13.675,0.001ZM3.855,4.134C1.257,6.775 -0.197,10.35 -0.197,14.071L3.803,14.071C3.803,11.39 4.851,8.825 6.706,6.939L3.855,4.134ZM-0.197,14.071C-0.197,17.792 1.257,21.367 3.855,24.008L6.706,21.203C4.851,19.317 3.803,16.752 3.803,14.071L-0.197,14.071ZM3.855,24.008L6.142,26.333L8.994,23.528L6.706,21.203L3.855,24.008ZM6.142,26.333L22.931,43.402L25.783,40.598L8.994,23.528L6.142,26.333ZM25.783,43.402L42.572,26.333L39.72,23.528L22.931,40.598L25.783,43.402ZM42.572,26.333L44.86,24.008L42.008,21.203L39.72,23.528L42.572,26.333ZM44.859,24.008C46.146,22.7 47.165,21.149 47.86,19.445L44.156,17.935C43.657,19.159 42.927,20.269 42.008,21.203L44.859,24.008ZM47.86,19.445C48.555,17.74 48.912,15.914 48.912,14.071L44.912,14.071C44.912,15.398 44.655,16.711 44.156,17.935L47.86,19.445ZM48.912,14.071C48.912,12.228 48.555,10.402 47.86,8.697L44.156,10.207C44.655,11.431 44.912,12.744 44.912,14.071L48.912,14.071ZM47.86,8.697C47.165,6.992 46.146,5.441 44.859,4.133L42.008,6.939C42.927,7.872 43.657,8.983 44.156,10.207L47.86,8.697Z" fill="#222222"/>
</svg>
