<svg width="38" height="32" viewBox="0 0 38 32" fill="none" xmlns="http://www.w3.org/2000/svg" xmlns:xlink="http://www.w3.org/1999/xlink">
<path d="M37.655,15.355C36.16,12.334 34.382,9.869 32.32,7.962L30.158,10.038C31.921,11.656 33.457,13.772 34.786,16.408C31.249,23.435 26.23,26.772 19.37,26.772C17.311,26.772 15.414,26.468 13.68,25.859L11.337,28.109C13.745,29.176 16.423,29.71 19.37,29.71C27.539,29.71 33.634,25.626 37.655,17.457C37.816,17.128 37.9,16.769 37.9,16.406C37.9,16.043 37.816,15.684 37.655,15.355L37.655,15.355ZM34.953,2.272L33.141,0.531C33.109,0.501 33.072,0.476 33.03,0.46C32.989,0.444 32.945,0.435 32.9,0.435C32.856,0.435 32.811,0.444 32.77,0.46C32.729,0.476 32.691,0.501 32.66,0.531L28.011,4.991C25.448,3.735 22.568,3.106 19.37,3.106C11.201,3.106 5.106,7.191 1.085,15.36C0.923,15.688 0.839,16.047 0.839,16.41C0.839,16.774 0.923,17.132 1.085,17.461C2.691,20.709 4.625,23.312 6.886,25.271L2.389,29.588C2.325,29.649 2.289,29.732 2.289,29.818C2.289,29.905 2.325,29.988 2.389,30.049L4.203,31.791C4.267,31.852 4.353,31.887 4.444,31.887C4.534,31.887 4.62,31.852 4.684,31.791L34.953,2.734C34.984,2.704 35.009,2.668 35.026,2.628C35.044,2.589 35.052,2.546 35.052,2.503C35.052,2.46 35.044,2.418 35.026,2.378C35.009,2.339 34.984,2.303 34.953,2.272ZM3.954,16.408C7.494,9.382 12.514,6.044 19.37,6.044C21.688,6.044 23.796,6.426 25.708,7.203L22.72,10.071C21.305,9.346 19.684,9.077 18.098,9.304C16.512,9.53 15.043,10.24 13.909,11.329C12.775,12.418 12.035,13.828 11.799,15.351C11.563,16.874 11.843,18.429 12.598,19.787L9.053,23.191C7.09,21.529 5.399,19.276 3.954,16.408ZM14.439,16.408C14.44,15.689 14.618,14.979 14.957,14.338C15.297,13.697 15.79,13.142 16.395,12.718C17.001,12.293 17.702,12.012 18.442,11.897C19.182,11.782 19.939,11.836 20.653,12.055L14.665,17.804C14.515,17.352 14.439,16.882 14.439,16.408L14.439,16.408Z" fill="#34A853"/>
<path d="M19.2,20.978C19.053,20.978 18.908,20.972 18.764,20.959L16.519,23.114C17.869,23.611 19.341,23.721 20.755,23.432C22.169,23.143 23.466,22.467 24.488,21.485C25.51,20.504 26.215,19.259 26.516,17.901C26.817,16.543 26.702,15.131 26.185,13.835L23.94,15.99C23.953,16.128 23.96,16.267 23.96,16.408C23.96,17.009 23.838,17.603 23.598,18.158C23.359,18.712 23.009,19.216 22.567,19.641C22.124,20.065 21.6,20.402 21.022,20.631C20.444,20.861 19.825,20.979 19.2,20.978L19.2,20.978Z" fill="#34A853"/>
</svg>
