<svg width="116" height="118" viewBox="0 0 116 118" fill="none" xmlns="http://www.w3.org/2000/svg" xmlns:xlink="http://www.w3.org/1999/xlink">
<path d="M25.219,47.022C27.46,40.138 31.785,34.149 37.576,29.909C43.367,25.668 50.329,23.393 57.469,23.408C65.563,23.408 72.881,26.326 78.628,31.101L95.351,14.125C85.16,5.105 72.1,-0.463 57.469,-0.463C34.817,-0.463 15.316,12.656 5.938,31.874L25.219,47.022Z" fill="#EA4335"/>
<path d="M76.818,87.13C71.597,90.549 64.969,92.373 57.47,92.373C50.358,92.387 43.422,90.13 37.644,85.921C31.865,81.712 27.537,75.764 25.272,68.919L5.924,83.833C10.671,93.59 18.018,101.799 27.13,107.528C36.241,113.257 46.752,116.277 57.47,116.244C71.516,116.244 84.935,111.172 94.988,101.656L76.822,87.13L76.818,87.13Z" fill="#34A853"/>
<path d="M94.987,101.655C105.5,91.696 112.324,76.875 112.324,57.89C112.324,54.438 111.802,50.727 111.021,47.28L57.469,47.28L57.469,69.828L88.292,69.828C86.774,77.41 82.689,83.279 76.822,87.13L94.987,101.655Z" fill="#4A90E2"/>
<path d="M25.272,68.919C24.101,65.364 23.506,61.639 23.51,57.89C23.51,54.087 24.109,50.436 25.22,47.022L5.939,31.874C1.994,39.96 -0.039,48.867 0,57.89C0,67.227 2.131,76.028 5.924,83.833L25.272,68.919Z" fill="#FBBC05"/>
</svg>
