<svg width="54" height="84" viewBox="0 0 54 84" fill="none" xmlns="http://www.w3.org/2000/svg" xmlns:xlink="http://www.w3.org/1999/xlink">
<path d="M53.733,39.68C53.733,57.867 26.867,82.667 26.867,82.667C26.867,82.667 0,57.867 0,39.68C0,24.614 12.029,12.4 26.867,12.4C41.705,12.4 53.733,24.614 53.733,39.68Z" fill="#FFFFFF" stroke="#000000" stroke-width="1" stroke-miterlimit="3.999327" stroke-linecap="round" stroke-linejoin="round"/>
<line x1="25.866" y1="0" x2="25.866" y2="12.4" fill="#FFFFFF" stroke="#000000" stroke-width="1" stroke-miterlimit="2" stroke-linecap="round" stroke-linejoin="round"/>
<path d="M14.467,2.067L22.733,12.401Z" fill="#FFFFFF" stroke="#000000" stroke-width="1" stroke-miterlimit="2" stroke-linecap="round" stroke-linejoin="round"/>
<path d="M39.267,2.067L31,12.401Z" fill="#FFFFFF" stroke="#000000" stroke-width="1" stroke-miterlimit="2" stroke-linecap="round" stroke-linejoin="round"/>
<line x1="2.067" y1="32.067" x2="18.6" y2="32.067" fill="#FFFFFF" stroke="#FFFFFF" stroke-width="1" stroke-miterlimit="2" stroke-linecap="round" stroke-linejoin="round"/>
<line x1="37.2" y1="46.533" x2="51.667" y2="46.533" fill="#FFFFFF" stroke="#FFFFFF" stroke-width="1" stroke-miterlimit="2" stroke-linecap="round" stroke-linejoin="round"/>
<line x1="10.333" y1="61" x2="22.733" y2="61" fill="#FFFFFF" stroke="#FFFFFF" stroke-width="1" stroke-miterlimit="2" stroke-linecap="round" stroke-linejoin="round"/>
<path d="M5.811,22.733C2.173,27.388 0,33.276 0,39.68C0,51.16 10.705,65.274 18.6,74.124Z" fill="#FFFFFF" stroke="#000000" stroke-width="1" stroke-miterlimit="3.999327" stroke-linecap="round" stroke-linejoin="round"/>
<path d="M53.734,39.68C53.734,45.413 51.065,51.803 47.408,57.866Z" fill="#FFFFFF" stroke="#000000" stroke-width="1" stroke-miterlimit="3.999327" stroke-linecap="round"/>
</svg>
