<svg width="34" height="32" viewBox="0 0 34 32" fill="none" xmlns="http://www.w3.org/2000/svg" xmlns:xlink="http://www.w3.org/1999/xlink">
<path d="M17.2,6.08C17.2,5.528 16.752,5.08 16.2,5.08C15.648,5.08 15.2,5.528 15.2,6.08L17.2,6.08ZM16.2,15.2L15.2,15.2C15.2,15.752 15.648,16.2 16.2,16.2L16.2,15.2ZM25.32,16.2C25.872,16.2 26.32,15.752 26.32,15.2C26.32,14.648 25.872,14.2 25.32,14.2L25.32,16.2ZM15.2,6.08L15.2,15.2L17.2,15.2L17.2,6.08L15.2,6.08ZM16.2,16.2L25.32,16.2L25.32,14.2L16.2,14.2L16.2,16.2Z" fill="#222222"/>
<path d="M16.2,31.4C25.147,31.4 32.4,24.147 32.4,15.2L30.4,15.2C30.4,23.042 24.042,29.4 16.2,29.4L16.2,31.4ZM32.4,15.2C32.4,6.253 25.147,-1 16.2,-1L16.2,1C24.042,1 30.4,7.358 30.4,15.2L32.4,15.2ZM16.2,-1C7.253,-1 0,6.253 0,15.2L2,15.2C2,7.358 8.358,1 16.2,1L16.2,-1ZM0,15.2C0,24.147 7.253,31.4 16.2,31.4L16.2,29.4C8.358,29.4 2,23.042 2,15.2L0,15.2Z" fill="#222222"/>
</svg>
