<svg width="50" height="62" viewBox="0 0 50 62" fill="none" xmlns="http://www.w3.org/2000/svg" xmlns:xlink="http://www.w3.org/1999/xlink">
<path d="M30,0L30.707,-0.707C30.52,-0.895 30.265,-1 30,-1L30,0ZM6,0L6,-1L6,0ZM0,6L-1,6L0,6ZM0,54L-1,54L0,54ZM48,18L49,18C49,17.735 48.895,17.48 48.707,17.293L48,18ZM30,-1L6,-1L6,1L30,1L30,-1ZM6,-1C4.143,-1 2.363,-0.263 1.05,1.05L2.464,2.464C3.402,1.527 4.674,1 6,1L6,-1ZM1.05,1.05C-0.263,2.363 -1,4.143 -1,6L1,6C1,4.674 1.527,3.402 2.464,2.464L1.05,1.05ZM-1,6L-1,54L1,54L1,6L-1,6ZM-1,54C-1,55.857 -0.263,57.637 1.05,58.95L2.464,57.536C1.527,56.598 1,55.326 1,54L-1,54ZM1.05,58.95C2.363,60.263 4.143,61 6,61L6,59C4.674,59 3.402,58.473 2.464,57.536L1.05,58.95ZM6,61L42,61L42,59L6,59L6,61ZM42,61C43.857,61 45.637,60.263 46.95,58.95L45.536,57.536C44.598,58.473 43.326,59 42,59L42,61ZM46.95,58.95C48.262,57.637 49,55.857 49,54L47,54C47,55.326 46.473,56.598 45.536,57.536L46.95,58.95ZM49,54L49,18L47,18L47,54L49,54ZM48.707,17.293L30.707,-0.707L29.293,0.707L47.293,18.707L48.707,17.293Z" fill="#222222"/>
<path d="M31,0C31,-0.552 30.552,-1 30,-1C29.448,-1 29,-0.552 29,0L31,0ZM30,18L29,18C29,18.552 29.448,19 30,19L30,18ZM48,19C48.552,19 49,18.552 49,18C49,17.448 48.552,17 48,17L48,19ZM29,0L29,18L31,18L31,0L29,0ZM30,19L48,19L48,17L30,17L30,19Z" fill="#222222"/>
<line x1="12" y1="32" x2="36" y2="32" stroke="#222222" stroke-width="1" stroke-miterlimit="3.999327" stroke-linecap="round" stroke-linejoin="round"/>
<line x1="12" y1="44" x2="36" y2="44" stroke="#222222" stroke-width="1" stroke-miterlimit="3.999327" stroke-linecap="round" stroke-linejoin="round"/>
<line x1="12" y1="20" x2="18" y2="20" stroke="#222222" stroke-width="1" stroke-miterlimit="3.999327" stroke-linecap="round" stroke-linejoin="round"/>
</svg>
