<svg width="62" height="62" viewBox="0 0 62 62" fill="none" xmlns="http://www.w3.org/2000/svg" xmlns:xlink="http://www.w3.org/1999/xlink">
<path d="M59,30C59,46.016 46.016,59 30,59L30,61C47.121,61 61,47.121 61,30L59,30ZM30,59C13.984,59 1,46.016 1,30L-1,30C-1,47.121 12.879,61 30,61L30,59ZM1,30C1,13.984 13.984,1 30,1L30,-1C12.879,-1 -1,12.879 -1,30L1,30ZM30,1C46.016,1 59,13.984 59,30L61,30C61,12.879 47.121,-1 30,-1L30,1Z" fill="#222222"/>
<path d="M20.327,20.668C20.144,21.189 20.417,21.76 20.938,21.943C21.459,22.126 22.03,21.853 22.213,21.332L20.327,20.668ZM38.76,24L37.76,23.998L37.76,24L38.76,24ZM29.444,32.051C28.92,32.226 28.637,32.792 28.811,33.316C28.986,33.84 29.552,34.123 30.076,33.948L29.444,32.051ZM22.213,21.332C22.84,19.549 24.078,18.047 25.707,17.089L24.693,15.365C22.657,16.562 21.11,18.44 20.327,20.668L22.213,21.332ZM25.707,17.089C27.336,16.132 29.251,15.782 31.113,16.101L31.451,14.13C29.123,13.731 26.729,14.168 24.693,15.365L25.707,17.089ZM31.113,16.101C32.975,16.421 34.664,17.389 35.88,18.834L37.41,17.546C35.89,15.74 33.778,14.53 31.451,14.13L31.113,16.101ZM35.88,18.834C37.097,20.28 37.763,22.109 37.76,23.998L39.76,24.001C39.764,21.64 38.931,19.353 37.41,17.546L35.88,18.834ZM37.76,24C37.76,26.469 35.895,28.458 33.705,29.918C32.641,30.627 31.57,31.164 30.76,31.523C30.357,31.703 30.022,31.836 29.791,31.925C29.675,31.969 29.586,32.001 29.526,32.022C29.497,32.033 29.475,32.041 29.461,32.045C29.454,32.048 29.449,32.049 29.446,32.05C29.445,32.051 29.444,32.051 29.443,32.051C29.443,32.051 29.443,32.051 29.443,32.051C29.443,32.051 29.443,32.051 29.443,32.051C29.444,32.051 29.444,32.051 29.76,33C30.076,33.948 30.077,33.948 30.077,33.948C30.077,33.948 30.078,33.948 30.078,33.948C30.079,33.948 30.079,33.947 30.08,33.947C30.082,33.947 30.084,33.946 30.087,33.945C30.093,33.943 30.101,33.94 30.111,33.937C30.131,33.93 30.16,33.92 30.196,33.907C30.269,33.881 30.372,33.843 30.503,33.794C30.764,33.694 31.132,33.547 31.573,33.351C32.451,32.961 33.629,32.372 34.815,31.582C37.125,30.042 39.76,27.531 39.76,24L37.76,24Z" fill="#222222"/>
<line x1="30" y1="44" x2="30.032" y2="44" stroke="#222222" stroke-width="1" stroke-miterlimit="3.999327" stroke-linecap="round" stroke-linejoin="round"/>
</svg>
