<svg width="40" height="62" viewBox="0 0 40 62" fill="none" xmlns="http://www.w3.org/2000/svg" xmlns:xlink="http://www.w3.org/1999/xlink">
<path d="M37.182,19.091C37.182,29.082 29.082,37.182 19.091,37.182L19.091,39.182C30.187,39.182 39.182,30.187 39.182,19.091L37.182,19.091ZM19.091,37.182C9.1,37.182 1,29.082 1,19.091L-1,19.091C-1,30.187 7.995,39.182 19.091,39.182L19.091,37.182ZM1,19.091C1,9.1 9.1,1 19.091,1L19.091,-1C7.995,-1 -1,7.995 -1,19.091L1,19.091ZM19.091,1C29.082,1 37.182,9.1 37.182,19.091L39.182,19.091C39.182,7.995 30.187,-1 19.091,-1L19.091,1Z" fill="#222222"/>
<path d="M9.746,35.286C9.819,34.739 9.434,34.236 8.886,34.163C8.339,34.091 7.836,34.476 7.763,35.023L9.746,35.286ZM5.455,60L4.463,59.868C4.413,60.249 4.585,60.625 4.906,60.836C5.226,61.047 5.64,61.055 5.969,60.858L5.455,60ZM19.091,51.818L19.605,50.961C19.289,50.771 18.893,50.771 18.576,50.961L19.091,51.818ZM32.727,60L32.213,60.858C32.542,61.055 32.955,61.047 33.276,60.836C33.597,60.625 33.769,60.249 33.719,59.869L32.727,60ZM30.419,34.996C30.346,34.448 29.843,34.063 29.296,34.136C28.748,34.209 28.363,34.711 28.436,35.259L30.419,34.996ZM7.763,35.023L4.463,59.868L6.446,60.132L9.746,35.286L7.763,35.023ZM5.969,60.858L19.605,52.676L18.576,50.961L4.94,59.143L5.969,60.858ZM18.576,52.676L32.213,60.858L33.242,59.143L19.605,50.961L18.576,52.676ZM33.719,59.869L30.419,34.996L28.436,35.259L31.736,60.132L33.719,59.869Z" fill="#222222"/>
</svg>
