<svg width="18" height="22" viewBox="0 0 18 22" fill="none" xmlns="http://www.w3.org/2000/svg" xmlns:xlink="http://www.w3.org/1999/xlink">
<path d="M15.543,1.895C16.034,2.147 16.637,1.954 16.889,1.462C17.142,0.971 16.948,0.368 16.457,0.116L15.543,1.895ZM16.457,19.884C16.948,19.632 17.142,19.029 16.889,18.538C16.637,18.046 16.034,17.853 15.543,18.105L16.457,19.884ZM16.457,0.116C15.067,-0.598 13.504,-1 11.852,-1L11.852,1C13.175,1 14.427,1.321 15.543,1.895L16.457,0.116ZM11.852,-1C6.014,-1 1.37,3.976 1.37,10L3.37,10C3.37,4.979 7.217,1 11.852,1L11.852,-1ZM1.37,10C1.37,16.024 6.014,21 11.852,21L11.852,19C7.217,19 3.37,15.021 3.37,10L1.37,10ZM11.852,21C13.504,21 15.067,20.598 16.457,19.884L15.543,18.105C14.427,18.679 13.175,19 11.852,19L11.852,21Z" fill="#222222"/>
<line x1="0" y1="6.5" x2="13.037" y2="6.5" stroke="#222222" stroke-width="1" stroke-miterlimit="3.999327" stroke-linecap="round" stroke-linejoin="round"/>
<line x1="0" y1="11.5" x2="13.037" y2="11.5" stroke="#222222" stroke-width="1" stroke-miterlimit="3.999327" stroke-linecap="round" stroke-linejoin="round"/>
</svg>
