<svg width="44" height="44" viewBox="0 0 44 44" fill="none" xmlns="http://www.w3.org/2000/svg" xmlns:xlink="http://www.w3.org/1999/xlink">
<path d="M35.556,19.778C35.556,28.492 28.492,35.556 19.778,35.556L19.778,39.556C30.701,39.556 39.556,30.701 39.556,19.778L35.556,19.778ZM19.778,35.556C11.064,35.556 4,28.492 4,19.778L0,19.778C0,30.701 8.855,39.556 19.778,39.556L19.778,35.556ZM4,19.778C4,11.064 11.064,4 19.778,4L19.778,0C8.855,0 0,8.855 0,19.778L4,19.778ZM19.778,4C28.492,4 35.556,11.064 35.556,19.778L39.556,19.778C39.556,8.855 30.701,0 19.778,0L19.778,4Z" fill="#222222"/>
<path d="M40.586,43.414C41.367,44.195 42.633,44.195 43.414,43.414C44.195,42.633 44.195,41.367 43.414,40.585L40.586,43.414ZM33.748,30.919C32.967,30.138 31.7,30.138 30.919,30.919C30.138,31.7 30.138,32.966 30.919,33.747L33.748,30.919ZM43.414,40.585L33.748,30.919L30.919,33.747L40.586,43.414L43.414,40.585Z" fill="#222222"/>
</svg>
