<svg width="48" height="46" viewBox="0 0 48 46" fill="none" xmlns="http://www.w3.org/2000/svg" xmlns:xlink="http://www.w3.org/1999/xlink">
<path d="M42.067,25.317L40.583,23.976L40.583,23.976L42.067,25.317ZM26.036,43.066L27.46,44.47L27.47,44.46L26.036,43.066ZM21.544,42.961L20.06,44.301L20.06,44.301L21.544,42.961ZM5.612,25.317L4.127,26.657L4.127,26.657L5.612,25.317ZM5.612,6.04L4.127,4.7L4.127,4.7L5.612,6.04ZM23.26,6.04L21.776,7.381L21.776,7.381L23.26,6.04ZM23.84,6.682L22.355,8.022C22.735,8.442 23.274,8.682 23.84,8.682C24.405,8.682 24.945,8.442 25.324,8.022L23.84,6.682ZM24.418,6.041L25.903,7.381L25.903,7.381L24.418,6.041ZM42.067,6.04L40.583,7.38L40.583,7.381L42.067,6.04ZM43.68,15.679C43.68,18.817 42.55,21.798 40.583,23.976L43.551,26.657C46.216,23.707 47.68,19.757 47.68,15.679L43.68,15.679ZM40.583,23.976C35.183,29.956 30.101,36.013 24.601,41.672L27.47,44.46C33.03,38.739 38.289,32.485 43.552,26.657L40.583,23.976ZM24.612,41.662C24.155,42.124 23.474,42.114 23.029,41.621L20.06,44.301C22.04,46.494 25.381,46.578 27.46,44.47L24.612,41.662ZM23.029,41.621L7.096,23.976L4.127,26.657L20.06,44.301L23.029,41.621ZM7.096,23.976C2.968,19.404 2.968,11.953 7.096,7.381L4.127,4.7C-1.376,10.795 -1.376,20.563 4.127,26.657L7.096,23.976ZM7.096,7.381C11.165,2.875 17.707,2.875 21.776,7.381L24.745,4.7C19.088,-1.565 9.785,-1.565 4.127,4.7L7.096,7.381ZM21.776,7.381L22.355,8.022L25.324,5.341L24.745,4.7L21.776,7.381ZM25.324,8.022L25.903,7.381L22.934,4.7L22.355,5.341L25.324,8.022ZM25.903,7.381C27.878,5.193 30.524,4 33.243,4L33.243,0C29.327,0 25.622,1.722 22.934,4.701L25.903,7.381ZM33.243,4C35.961,4 38.608,5.192 40.583,7.38L43.552,4.7C40.863,1.722 37.159,0 33.243,0L33.243,4ZM40.583,7.381C42.55,9.559 43.68,12.54 43.68,15.679L47.68,15.679C47.68,11.6 46.216,7.65 43.551,4.7L40.583,7.381Z" fill="#BB0E00" fill-opacity="0.93"/>
</svg>
