<svg width="82" height="60" viewBox="0 0 82 60" fill="none" xmlns="http://www.w3.org/2000/svg" xmlns:xlink="http://www.w3.org/1999/xlink">
<path d="M80.723,29.172L65.034,23.172L57.281,7.034C55.184,2.69 51.17,0 46.883,0L18.607,0C14.229,0 10.307,2.69 8.209,7.034L0.091,23.897C0.091,23.897 0.091,23.897 0.091,24C0,24.103 0,24.207 0,24.31L0,24.414C0,24.517 0,24.724 0,24.828L0,49.655C0,50.793 0.821,51.724 1.824,51.724L9.304,51.724C10.125,56.483 13.864,60 18.242,60C22.621,60 26.36,56.483 27.181,51.724L54.91,51.724C55.731,56.483 59.471,60 63.849,60C68.227,60 71.967,56.483 72.788,51.724L80.176,51.724C81.179,51.724 82,50.793 82,49.655L82,31.138C82,30.207 81.544,29.483 80.723,29.172ZM30.009,4.241L46.883,4.241C49.893,4.241 52.63,6.103 54.089,9.103L60.656,22.862L30.009,22.862L30.009,4.241ZM11.402,9.103C12.861,6.103 15.597,4.241 18.607,4.241L26.36,4.241L26.36,22.862L4.834,22.862L11.402,9.103ZM9.212,47.69L3.557,47.69L3.557,43.552L10.854,43.552C10.033,44.793 9.486,46.138 9.212,47.69ZM18.151,55.966C15.141,55.966 12.679,53.172 12.679,49.759C12.679,46.345 15.141,43.552 18.151,43.552C21.161,43.552 23.624,46.345 23.624,49.759C23.624,53.172 21.161,55.966 18.151,55.966ZM63.758,55.966C60.747,55.966 58.285,53.172 58.285,49.759C58.285,46.345 60.747,43.552 63.758,43.552C66.768,43.552 69.23,46.345 69.23,49.759C69.23,53.172 66.768,55.966 63.758,55.966ZM78.352,47.69L72.696,47.69C71.875,42.931 68.136,39.414 63.758,39.414C59.379,39.414 55.64,42.931 54.819,47.69L27.09,47.69C26.269,42.931 22.529,39.414 18.151,39.414L3.557,39.414L3.557,27L63.484,27L78.352,32.586L78.352,47.69Z" fill="#3B322C"/>
</svg>
