<svg width="130" height="130" viewBox="0 0 130 130" fill="none" xmlns="http://www.w3.org/2000/svg" xmlns:xlink="http://www.w3.org/1999/xlink">
<path d="M95.45,120.388C85.992,125.657 75.313,128.47 64.235,128.47C28.759,128.47 0,99.711 0,64.235C0,28.759 28.759,0 64.235,0C99.711,0 128.47,28.759 128.47,64.235C128.47,75.313 125.657,85.992 120.388,95.45L122.655,122.655L95.45,120.388ZM92.445,107.246L108.591,108.591L107.246,92.445L108.314,90.668C113.073,82.75 115.623,73.687 115.623,64.235C115.623,35.854 92.616,12.847 64.235,12.847C35.854,12.847 12.847,35.854 12.847,64.235C12.847,92.616 35.854,115.623 64.235,115.623C73.687,115.623 82.75,113.073 90.668,108.314L92.445,107.246ZM64.237,96.342C60.688,96.342 57.812,93.466 57.812,89.918C57.812,86.371 60.688,83.495 64.237,83.495C67.786,83.495 70.663,86.371 70.663,89.918C70.663,93.466 67.786,96.342 64.237,96.342ZM70.659,77.082L57.812,77.082L57.812,70.659C57.812,65.922 60.27,62.311 64.09,59.28C65.24,58.369 65.585,58.14 67.665,56.821C69.519,55.646 70.659,53.619 70.659,51.388C70.659,47.84 67.783,44.965 64.235,44.965C60.687,44.965 57.812,47.84 57.812,51.388L44.965,51.388C44.965,40.745 53.592,32.118 64.235,32.118C74.878,32.118 83.506,40.745 83.506,51.388C83.506,58.066 80.076,64.164 74.544,67.671C72.918,68.702 72.718,68.834 72.075,69.345C71.02,70.182 70.659,70.713 70.659,70.659L70.659,77.082Z" fill="#222222"/>
</svg>
