<svg width="38" height="32" viewBox="0 0 38 32" fill="none" xmlns="http://www.w3.org/2000/svg" xmlns:xlink="http://www.w3.org/1999/xlink">
<path d="M37.655,14.754C36.16,11.733 34.382,9.268 32.32,7.361L30.158,9.437C31.921,11.055 33.457,13.171 34.786,15.807C31.249,22.834 26.23,26.171 19.37,26.171C17.311,26.171 15.414,25.867 13.68,25.258L11.337,27.508C13.745,28.575 16.423,29.109 19.37,29.109C27.539,29.109 33.634,25.025 37.655,16.856C37.816,16.527 37.9,16.168 37.9,15.805C37.9,15.442 37.816,15.083 37.655,14.754L37.655,14.754ZM34.953,1.671L33.141,-0.07C33.109,-0.101 33.072,-0.125 33.03,-0.141C32.989,-0.157 32.945,-0.166 32.9,-0.166C32.856,-0.166 32.811,-0.157 32.77,-0.141C32.729,-0.125 32.691,-0.101 32.66,-0.07L28.011,4.39C25.448,3.134 22.568,2.505 19.37,2.505C11.201,2.505 5.106,6.59 1.085,14.759C0.923,15.087 0.839,15.446 0.839,15.809C0.839,16.173 0.923,16.531 1.085,16.86C2.691,20.108 4.625,22.711 6.886,24.67L2.389,28.987C2.325,29.048 2.289,29.131 2.289,29.217C2.289,29.304 2.325,29.387 2.389,29.448L4.203,31.19C4.267,31.251 4.353,31.286 4.444,31.286C4.534,31.286 4.62,31.251 4.684,31.19L34.953,2.133C34.984,2.103 35.009,2.067 35.026,2.027C35.044,1.988 35.052,1.945 35.052,1.902C35.052,1.859 35.044,1.817 35.026,1.777C35.009,1.738 34.984,1.702 34.953,1.671ZM3.954,15.807C7.494,8.781 12.514,5.443 19.37,5.443C21.688,5.443 23.796,5.825 25.708,6.602L22.72,9.47C21.305,8.745 19.684,8.476 18.098,8.703C16.512,8.929 15.043,9.639 13.909,10.728C12.775,11.817 12.035,13.227 11.799,14.75C11.563,16.273 11.843,17.828 12.598,19.186L9.053,22.59C7.09,20.928 5.399,18.675 3.954,15.807ZM14.439,15.807C14.44,15.088 14.618,14.378 14.957,13.737C15.297,13.096 15.79,12.541 16.395,12.117C17.001,11.692 17.702,11.411 18.442,11.296C19.182,11.181 19.939,11.235 20.653,11.454L14.665,17.203C14.515,16.751 14.439,16.281 14.439,15.807L14.439,15.807Z" fill="#34A853"/>
<path d="M19.2,20.377C19.053,20.377 18.908,20.371 18.764,20.358L16.519,22.513C17.869,23.01 19.341,23.12 20.755,22.831C22.169,22.542 23.466,21.866 24.488,20.884C25.51,19.903 26.215,18.658 26.516,17.3C26.817,15.942 26.702,14.53 26.185,13.234L23.94,15.389C23.953,15.527 23.96,15.666 23.96,15.807C23.96,16.408 23.838,17.002 23.598,17.557C23.359,18.111 23.009,18.615 22.567,19.04C22.124,19.464 21.6,19.801 21.022,20.03C20.444,20.26 19.825,20.378 19.2,20.377L19.2,20.377Z" fill="#34A853"/>
</svg>
