<svg width="538" height="38" viewBox="0 0 538 38" fill="none" xmlns="http://www.w3.org/2000/svg" xmlns:xlink="http://www.w3.org/1999/xlink">
<g filter="url(#filter2204_182)">
<path d="M0,17.732C0,7.709 8.125,-0.416 18.148,-0.416L519.852,-0.416C529.874,-0.416 538,7.709 538,17.732L538,17.732L538,17.732C538,27.755 529.874,35.88 519.852,35.88L18.148,35.88C8.125,35.88 0,27.755 0,17.732L0,17.732Z" fill="#FFFFFF" stroke="#D9D9D9" stroke-width="0.5" stroke-miterlimit="3.999327"/>
</g>
<path d="M0,18.148C0,8.125 8.125,0 18.148,0L250.852,0C260.874,0 269,8.125 269,18.148L269,18.148L269,18.148C269,28.171 260.874,36.296 250.852,36.296L18.148,36.296C8.125,36.296 0,28.171 0,18.148L0,18.148Z" fill="#34A853" fill-opacity="0.23" stroke="#D9D9D9" stroke-width="0.5" stroke-miterlimit="3.999327"/>
<defs>
<filter id="filter2204_182" x="-4" y="-4.416016" width="277" height="26.148148" filterUnits="userSpaceOnUse" color-interpolation-filters="sRGB">
<feFlood flood-opacity="0" result="BackgroundImageFix"/>
<feColorMatrix in="SourceAlpha" type="matrix" values="0 0 0 0 0 0 0 0 0 0 0 0 0 0 0 0 0 0 127 0" result="hardAlpha"/>
<feMorphology radius="0" operator="dilate" in="SourceAlpha" result="0dropshadow"/>
<feOffset dx="0" dy="2"/>
<feGaussianBlur stdDeviation="2"/>
<feComposite in2="hardAlpha" operator="out"/>
<feColorMatrix type="matrix" values="0 0 0 0 0 0 0 0 0 0 0 0 0 0 0 0 0 0 0.25 0"/>
<feBlend mode="normal" in2="BackgroundImageFix" result="0dropshadow"/>
<feBlend mode="normal" in="SourceGraphic" in2="0dropshadow" result="shape"/>
</filter>
</defs>
</svg>
