<svg width="60" height="60" viewBox="0 0 60 60" fill="none" xmlns="http://www.w3.org/2000/svg" xmlns:xlink="http://www.w3.org/1999/xlink">
<path d="M0,12L60,12L60,24L57.902,25.259C54.577,27.254 50.423,27.254 47.098,25.259L45,24L42.902,25.259C39.577,27.254 35.423,27.254 32.098,25.259L30,24L27.902,25.259C24.577,27.254 20.423,27.254 17.098,25.259L15,24L12.902,25.259C9.577,27.254 5.423,27.254 2.098,25.259L0,24L0,12Z" fill="#FFFFFF" stroke="#000000" stroke-width="1" stroke-miterlimit="3.999327" stroke-linecap="round" stroke-linejoin="round"/>
<path d="M6,27.733L6,60L54,60L54,27Z" fill="#FFFFFF" stroke="#000000" stroke-width="1" stroke-miterlimit="3.999327" stroke-linecap="round" stroke-linejoin="round"/>
<path d="M6,11.733L6,0L54,0L54,12Z" fill="#FFFFFF" stroke="#000000" stroke-width="1" stroke-miterlimit="3.999327" stroke-linecap="round" stroke-linejoin="round"/>
<path d="M37.5,42L22.5,42L22.5,60L37.5,60L37.5,42Z" fill="#FFFFFF" stroke="#000000" stroke-width="1" stroke-miterlimit="3.999327" stroke-linecap="round" stroke-linejoin="round"/>
</svg>
