<svg width="62" height="62" viewBox="0 0 62 62" fill="none" xmlns="http://www.w3.org/2000/svg" xmlns:xlink="http://www.w3.org/1999/xlink">
<path d="M37.182,30C37.182,33.967 33.966,37.182 30,37.182L30,39.182C35.071,39.182 39.182,35.071 39.182,30L37.182,30ZM30,37.182C26.034,37.182 22.818,33.967 22.818,30L20.818,30C20.818,35.071 24.929,39.182 30,39.182L30,37.182ZM22.818,30C22.818,26.034 26.034,22.818 30,22.818L30,20.818C24.929,20.818 20.818,24.929 20.818,30L22.818,30ZM30,22.818C33.966,22.818 37.182,26.034 37.182,30L39.182,30C39.182,24.929 35.071,20.818 30,20.818L30,22.818Z" fill="#222222"/>
<path d="M50.182,38.182L51.097,38.586L51.101,38.576L50.182,38.182ZM51.082,43.145L50.367,43.845L50.375,43.853L51.082,43.145ZM51.245,43.309L50.538,44.016L50.539,44.017L51.245,43.309ZM51.245,51.027L50.539,50.32L50.538,50.321L51.245,51.027ZM43.527,51.027L44.235,50.321L44.234,50.32L43.527,51.027ZM43.364,50.864L44.071,50.156L44.063,50.149L43.364,50.864ZM38.4,49.964L38.794,50.883L38.804,50.878L38.4,49.964ZM35.673,54.082L34.673,54.078L34.673,54.082L35.673,54.082ZM24.764,54.3L25.764,54.3L25.763,54.277L24.764,54.3ZM21.818,50.182L21.414,51.097C21.434,51.105 21.453,51.113 21.473,51.12L21.818,50.182ZM16.855,51.082L16.155,50.367L16.147,50.375L16.855,51.082ZM16.691,51.245L15.984,50.538L15.983,50.539L16.691,51.245ZM8.973,51.245L9.68,50.539L9.679,50.538L8.973,51.245ZM7.373,47.386L8.373,47.386L7.373,47.386ZM8.973,43.527L9.679,44.235L9.68,44.234L8.973,43.527ZM9.136,43.364L9.844,44.071L9.851,44.063L9.136,43.364ZM10.036,38.4L9.117,38.794L9.122,38.804L10.036,38.4ZM5.918,35.673L5.922,34.673L5.918,34.673L5.918,35.673ZM0,30.218L-1,30.218L0,30.218ZM5.455,24.764L5.455,25.764L5.455,24.764ZM5.7,24.764L5.7,25.764L5.723,25.763L5.7,24.764ZM9.818,21.818L8.903,21.414C8.895,21.434 8.887,21.453 8.88,21.473L9.818,21.818ZM8.918,16.855L9.633,16.155L9.625,16.147L8.918,16.855ZM8.755,16.691L9.462,15.984L9.461,15.983L8.755,16.691ZM8.755,8.973L9.461,9.68L9.462,9.679L8.755,8.973ZM16.473,8.973L15.765,9.679L15.766,9.68L16.473,8.973ZM16.636,9.136L15.929,9.844L15.937,9.851L16.636,9.136ZM21.6,10.036L21.6,9.036C21.461,9.036 21.323,9.065 21.196,9.121L21.6,10.036ZM21.818,10.036L21.818,11.036C21.954,11.036 22.088,11.009 22.212,10.956L21.818,10.036ZM24.545,5.918L25.545,5.922L25.545,5.918L24.545,5.918ZM30,0L30,-1L30,0ZM35.455,5.7L34.455,5.7L34.455,5.704L35.455,5.7ZM38.182,9.818L38.586,8.903L38.576,8.899L38.182,9.818ZM43.145,8.918L43.845,9.633L43.853,9.625L43.145,8.918ZM43.309,8.755L44.016,9.462L44.017,9.461L43.309,8.755ZM47.168,7.155L47.168,8.155L47.168,7.155ZM51.027,8.755L50.32,9.461L50.321,9.462L51.027,8.755ZM51.027,16.473L50.321,15.765L50.32,15.766L51.027,16.473ZM50.864,16.636L50.156,15.929L50.149,15.937L50.864,16.636ZM49.964,21.6L50.964,21.6C50.964,21.461 50.935,21.323 50.878,21.196L49.964,21.6ZM49.964,21.818L48.964,21.818C48.964,21.954 48.991,22.088 49.044,22.212L49.964,21.818ZM54.082,24.545L54.078,25.545L54.082,25.545L54.082,24.545ZM54.3,35.455L54.3,34.455L54.296,34.455L54.3,35.455ZM49.267,37.778C48.823,38.783 48.691,39.899 48.887,40.98L50.855,40.623C50.73,39.935 50.814,39.225 51.097,38.586L49.267,37.778ZM48.887,40.98C49.083,42.061 49.598,43.059 50.367,43.845L51.797,42.446C51.308,41.946 50.98,41.311 50.855,40.623L48.887,40.98ZM50.375,43.853L50.538,44.016L51.953,42.602L51.789,42.438L50.375,43.853ZM50.539,44.017C50.953,44.43 51.281,44.922 51.506,45.462L53.353,44.696C53.028,43.913 52.552,43.201 51.952,42.602L50.539,44.017ZM51.506,45.462C51.73,46.003 51.845,46.583 51.845,47.168L53.845,47.168C53.845,46.32 53.678,45.48 53.353,44.696L51.506,45.462ZM51.845,47.168C51.845,47.754 51.73,48.333 51.506,48.874L53.353,49.64C53.678,48.856 53.845,48.016 53.845,47.168L51.845,47.168ZM51.506,48.874C51.281,49.415 50.953,49.906 50.539,50.32L51.952,51.735C52.552,51.135 53.028,50.423 53.353,49.64L51.506,48.874ZM50.538,50.321C50.124,50.735 49.633,51.063 49.092,51.287L49.858,53.135C50.642,52.81 51.354,52.334 51.953,51.734L50.538,50.321ZM49.092,51.287C48.551,51.512 47.972,51.627 47.386,51.627L47.386,53.627C48.235,53.627 49.075,53.46 49.858,53.135L49.092,51.287ZM47.386,51.627C46.801,51.627 46.221,51.512 45.681,51.287L44.915,53.135C45.698,53.46 46.538,53.627 47.386,53.627L47.386,51.627ZM45.681,51.287C45.14,51.063 44.648,50.735 44.235,50.321L42.82,51.734C43.419,52.334 44.131,52.81 44.915,53.135L45.681,51.287ZM44.234,50.32L44.071,50.157L42.657,51.571L42.82,51.734L44.234,50.32ZM44.063,50.149C43.277,49.38 42.28,48.865 41.198,48.669L40.841,50.637C41.529,50.761 42.164,51.089 42.664,51.578L44.063,50.149ZM41.198,48.669C40.117,48.473 39.002,48.605 37.996,49.049L38.804,50.878C39.444,50.596 40.153,50.512 40.841,50.637L41.198,48.669ZM38.006,49.044C37.02,49.467 36.179,50.169 35.587,51.063L37.255,52.167C37.631,51.598 38.167,51.152 38.794,50.883L38.006,49.044ZM35.587,51.063C34.995,51.957 34.677,53.005 34.673,54.078L36.673,54.086C36.675,53.403 36.878,52.736 37.255,52.167L35.587,51.063ZM34.673,54.082L34.673,54.545L36.673,54.545L36.673,54.082L34.673,54.082ZM34.673,54.545C34.673,55.727 34.203,56.86 33.368,57.695L34.782,59.11C35.993,57.899 36.673,56.257 36.673,54.545L34.673,54.545ZM33.368,57.695C32.533,58.531 31.4,59 30.218,59L30.218,61C31.93,61 33.572,60.32 34.782,59.11L33.368,57.695ZM30.218,59C29.037,59 27.904,58.531 27.068,57.695L25.654,59.11C26.865,60.32 28.506,61 30.218,61L30.218,59ZM27.068,57.695C26.233,56.86 25.764,55.727 25.764,54.545L23.764,54.545C23.764,56.257 24.444,57.899 25.654,59.11L27.068,57.695ZM25.764,54.545L25.764,54.3L23.764,54.3L23.764,54.545L25.764,54.545ZM25.763,54.277C25.738,53.173 25.38,52.103 24.738,51.206L23.112,52.369C23.52,52.94 23.747,53.621 23.764,54.323L25.763,54.277ZM24.738,51.206C24.096,50.308 23.199,49.624 22.163,49.243L21.473,51.12C22.132,51.363 22.703,51.798 23.112,52.369L24.738,51.206ZM22.222,49.267C21.217,48.823 20.101,48.691 19.02,48.887L19.377,50.855C20.065,50.73 20.775,50.814 21.414,51.097L22.222,49.267ZM19.02,48.887C17.939,49.083 16.941,49.598 16.155,50.367L17.554,51.797C18.054,51.308 18.689,50.98 19.377,50.855L19.02,48.887ZM16.147,50.375L15.984,50.538L17.398,51.953L17.562,51.789L16.147,50.375ZM15.983,50.539C15.57,50.953 15.078,51.281 14.538,51.506L15.304,53.353C16.087,53.028 16.799,52.552 17.398,51.952L15.983,50.539ZM14.538,51.506C13.997,51.73 13.417,51.845 12.832,51.845L12.832,53.845C13.68,53.845 14.52,53.678 15.304,53.353L14.538,51.506ZM12.832,51.845C12.246,51.845 11.667,51.73 11.126,51.506L10.36,53.353C11.144,53.678 11.984,53.845 12.832,53.845L12.832,51.845ZM11.126,51.506C10.585,51.281 10.094,50.953 9.68,50.539L8.265,51.952C8.865,52.552 9.577,53.028 10.36,53.353L11.126,51.506ZM9.679,50.538C9.265,50.124 8.937,49.633 8.713,49.092L6.865,49.858C7.19,50.642 7.666,51.354 8.266,51.953L9.679,50.538ZM8.713,49.092C8.488,48.551 8.373,47.972 8.373,47.386L6.373,47.386C6.373,48.235 6.54,49.075 6.865,49.858L8.713,49.092ZM8.373,47.386C8.373,46.801 8.488,46.221 8.713,45.681L6.865,44.915C6.54,45.698 6.373,46.538 6.373,47.386L8.373,47.386ZM8.713,45.681C8.937,45.14 9.265,44.648 9.679,44.235L8.266,42.82C7.666,43.419 7.19,44.131 6.865,44.915L8.713,45.681ZM9.68,44.234L9.843,44.071L8.429,42.657L8.266,42.82L9.68,44.234ZM9.851,44.063C10.62,43.277 11.135,42.28 11.331,41.198L9.363,40.841C9.239,41.529 8.911,42.164 8.421,42.664L9.851,44.063ZM11.331,41.198C11.527,40.117 11.395,39.002 10.951,37.996L9.122,38.804C9.404,39.444 9.488,40.153 9.363,40.841L11.331,41.198ZM10.956,38.006C10.533,37.02 9.831,36.179 8.937,35.587L7.833,37.255C8.402,37.631 8.848,38.167 9.117,38.794L10.956,38.006ZM8.937,35.587C8.043,34.995 6.995,34.677 5.922,34.673L5.914,36.673C6.597,36.675 7.264,36.878 7.833,37.255L8.937,35.587ZM5.918,34.673L5.455,34.673L5.455,36.673L5.918,36.673L5.918,34.673ZM5.455,34.673C4.273,34.673 3.14,34.203 2.305,33.368L0.89,34.782C2.101,35.993 3.743,36.673 5.455,36.673L5.455,34.673ZM2.305,33.368C1.469,32.533 1,31.4 1,30.218L-1,30.218C-1,31.93 -0.32,33.572 0.89,34.782L2.305,33.368ZM1,30.218C1,29.037 1.469,27.904 2.305,27.068L0.89,25.654C-0.32,26.865 -1,28.506 -1,30.218L1,30.218ZM2.305,27.068C3.14,26.233 4.273,25.764 5.455,25.764L5.455,23.764C3.743,23.764 2.101,24.444 0.89,25.654L2.305,27.068ZM5.455,25.764L5.7,25.764L5.7,23.764L5.455,23.764L5.455,25.764ZM5.723,25.763C6.827,25.738 7.897,25.38 8.794,24.738L7.631,23.112C7.06,23.52 6.379,23.747 5.677,23.764L5.723,25.763ZM8.794,24.738C9.692,24.096 10.376,23.199 10.757,22.163L8.88,21.473C8.637,22.132 8.202,22.703 7.631,23.112L8.794,24.738ZM10.733,22.222C11.177,21.217 11.309,20.101 11.113,19.02L9.145,19.377C9.27,20.065 9.186,20.775 8.903,21.414L10.733,22.222ZM11.113,19.02C10.917,17.939 10.401,16.941 9.633,16.155L8.203,17.554C8.692,18.054 9.02,18.689 9.145,19.377L11.113,19.02ZM9.625,16.147L9.462,15.984L8.047,17.398L8.211,17.562L9.625,16.147ZM9.461,15.983C9.047,15.57 8.719,15.078 8.494,14.538L6.647,15.304C6.972,16.087 7.448,16.799 8.048,17.398L9.461,15.983ZM8.494,14.538C8.27,13.997 8.155,13.417 8.155,12.832L6.155,12.832C6.155,13.68 6.322,14.52 6.647,15.304L8.494,14.538ZM8.155,12.832C8.155,12.246 8.27,11.667 8.494,11.126L6.647,10.36C6.322,11.144 6.155,11.984 6.155,12.832L8.155,12.832ZM8.494,11.126C8.719,10.585 9.047,10.094 9.461,9.68L8.048,8.265C7.448,8.865 6.972,9.577 6.647,10.36L8.494,11.126ZM9.462,9.679C9.876,9.265 10.367,8.937 10.908,8.713L10.142,6.865C9.358,7.19 8.646,7.666 8.047,8.266L9.462,9.679ZM10.908,8.713C11.449,8.488 12.028,8.373 12.614,8.373L12.614,6.373C11.765,6.373 10.925,6.54 10.142,6.865L10.908,8.713ZM12.614,8.373C13.199,8.373 13.779,8.488 14.319,8.713L15.085,6.865C14.302,6.54 13.462,6.373 12.614,6.373L12.614,8.373ZM14.319,8.713C14.86,8.937 15.352,9.265 15.765,9.679L17.18,8.266C16.581,7.666 15.869,7.19 15.085,6.865L14.319,8.713ZM15.766,9.68L15.929,9.843L17.343,8.429L17.18,8.266L15.766,9.68ZM15.937,9.851C16.723,10.62 17.72,11.135 18.802,11.331L19.159,9.363C18.471,9.239 17.836,8.911 17.336,8.422L15.937,9.851ZM18.802,11.331C19.883,11.527 20.998,11.395 22.004,10.951L21.196,9.121C20.556,9.404 19.847,9.488 19.159,9.363L18.802,11.331ZM21.6,11.036L21.818,11.036L21.818,9.036L21.6,9.036L21.6,11.036ZM22.212,10.956C23.198,10.533 24.039,9.831 24.631,8.937L22.964,7.833C22.587,8.402 22.052,8.848 21.424,9.117L22.212,10.956ZM24.631,8.937C25.223,8.043 25.541,6.995 25.545,5.922L23.545,5.914C23.543,6.597 23.34,7.264 22.964,7.833L24.631,8.937ZM25.545,5.918L25.545,5.455L23.545,5.455L23.545,5.918L25.545,5.918ZM25.545,5.455C25.545,4.273 26.015,3.14 26.85,2.305L25.436,0.89C24.225,2.101 23.545,3.743 23.545,5.455L25.545,5.455ZM26.85,2.305C27.686,1.469 28.819,1 30,1L30,-1C28.288,-1 26.646,-0.32 25.436,0.89L26.85,2.305ZM30,1C31.181,1 32.314,1.469 33.15,2.305L34.564,0.89C33.354,-0.32 31.712,-1 30,-1L30,1ZM33.15,2.305C33.985,3.14 34.455,4.273 34.455,5.455L36.455,5.455C36.455,3.743 35.775,2.101 34.564,0.89L33.15,2.305ZM34.455,5.455L34.455,5.7L36.455,5.7L36.455,5.455L34.455,5.455ZM34.455,5.704C34.459,6.777 34.777,7.825 35.369,8.719L37.036,7.615C36.66,7.045 36.457,6.379 36.455,5.696L34.455,5.704ZM35.369,8.719C35.961,9.613 36.802,10.315 37.788,10.737L38.576,8.899C37.948,8.63 37.413,8.184 37.036,7.615L35.369,8.719ZM37.778,10.733C38.783,11.177 39.899,11.309 40.98,11.113L40.623,9.145C39.935,9.27 39.225,9.186 38.586,8.903L37.778,10.733ZM40.98,11.113C42.061,10.917 43.059,10.401 43.845,9.633L42.446,8.203C41.946,8.692 41.311,9.02 40.623,9.145L40.98,11.113ZM43.853,9.625L44.016,9.462L42.602,8.047L42.438,8.211L43.853,9.625ZM44.017,9.461C44.43,9.047 44.922,8.719 45.462,8.494L44.696,6.647C43.913,6.972 43.201,7.448 42.602,8.048L44.017,9.461ZM45.462,8.494C46.003,8.27 46.583,8.155 47.168,8.155L47.168,6.155C46.32,6.155 45.48,6.322 44.696,6.647L45.462,8.494ZM47.168,8.155C47.754,8.155 48.333,8.27 48.874,8.494L49.64,6.647C48.856,6.322 48.016,6.155 47.168,6.155L47.168,8.155ZM48.874,8.494C49.415,8.719 49.906,9.047 50.32,9.461L51.735,8.048C51.135,7.448 50.423,6.972 49.64,6.647L48.874,8.494ZM50.321,9.462C50.735,9.876 51.063,10.367 51.287,10.908L53.135,10.142C52.81,9.358 52.334,8.647 51.734,8.047L50.321,9.462ZM51.287,10.908C51.512,11.449 51.627,12.028 51.627,12.614L53.627,12.614C53.627,11.765 53.46,10.925 53.135,10.142L51.287,10.908ZM51.627,12.614C51.627,13.199 51.512,13.779 51.287,14.319L53.135,15.085C53.46,14.302 53.627,13.462 53.627,12.614L51.627,12.614ZM51.287,14.319C51.063,14.86 50.735,15.352 50.321,15.765L51.734,17.18C52.334,16.581 52.81,15.869 53.135,15.085L51.287,14.319ZM50.32,15.766L50.157,15.929L51.571,17.343L51.734,17.18L50.32,15.766ZM50.149,15.937C49.38,16.723 48.865,17.72 48.669,18.802L50.637,19.159C50.761,18.471 51.089,17.836 51.578,17.336L50.149,15.937ZM48.669,18.802C48.473,19.883 48.605,20.998 49.049,22.004L50.878,21.196C50.596,20.556 50.512,19.847 50.637,19.159L48.669,18.802ZM48.964,21.6L48.964,21.818L50.964,21.818L50.964,21.6L48.964,21.6ZM49.044,22.212C49.467,23.198 50.169,24.039 51.063,24.631L52.167,22.964C51.598,22.587 51.152,22.052 50.883,21.424L49.044,22.212ZM51.063,24.631C51.957,25.223 53.005,25.541 54.078,25.545L54.086,23.545C53.403,23.543 52.736,23.34 52.167,22.964L51.063,24.631ZM54.082,25.545L54.545,25.545L54.545,23.545L54.082,23.545L54.082,25.545ZM54.545,25.545C55.727,25.545 56.86,26.015 57.695,26.85L59.11,25.436C57.899,24.225 56.257,23.545 54.545,23.545L54.545,25.545ZM57.695,26.85C58.531,27.686 59,28.819 59,30L61,30C61,28.288 60.32,26.646 59.11,25.436L57.695,26.85ZM59,30C59,31.181 58.531,32.314 57.695,33.15L59.11,34.564C60.32,33.354 61,31.712 61,30L59,30ZM57.695,33.15C56.86,33.985 55.727,34.455 54.545,34.455L54.545,36.455C56.257,36.455 57.899,35.775 59.11,34.564L57.695,33.15ZM54.545,34.455L54.3,34.455L54.3,36.455L54.545,36.455L54.545,34.455ZM54.296,34.455C53.223,34.459 52.175,34.777 51.281,35.369L52.385,37.036C52.955,36.66 53.621,36.457 54.304,36.455L54.296,34.455ZM51.281,35.369C50.387,35.961 49.685,36.802 49.263,37.788L51.101,38.576C51.37,37.948 51.816,37.413 52.385,37.036L51.281,35.369Z" fill="#222222"/>
</svg>
