<svg width="56" height="62" viewBox="0 0 56 62" fill="none" xmlns="http://www.w3.org/2000/svg" xmlns:xlink="http://www.w3.org/1999/xlink">
<path d="M52.333,60C52.333,60.552 52.781,61 53.333,61C53.886,61 54.333,60.552 54.333,60L52.333,60ZM40,40L40,39L40,40ZM13.333,40L13.333,39L13.333,40ZM0,53.333L-1,53.333L0,53.333ZM-1,60C-1,60.552 -0.552,61 0,61C0.552,61 1,60.552 1,60L-1,60ZM54.333,60L54.333,53.333L52.333,53.333L52.333,60L54.333,60ZM54.333,53.333C54.333,49.532 52.823,45.886 50.135,43.198L48.721,44.612C51.034,46.925 52.333,50.062 52.333,53.333L54.333,53.333ZM50.135,43.198C47.447,40.51 43.801,39 40,39L40,41C43.271,41 46.408,42.299 48.721,44.612L50.135,43.198ZM40,39L13.333,39L13.333,41L40,41L40,39ZM13.333,39C9.532,39 5.886,40.51 3.198,43.198L4.612,44.612C6.925,42.299 10.062,41 13.333,41L13.333,39ZM3.198,43.198C0.51,45.886 -1,49.532 -1,53.333L1,53.333C1,50.062 2.299,46.925 4.612,44.612L3.198,43.198ZM-1,53.333L-1,60L1,60L1,53.333L-1,53.333Z" fill="#222222"/>
<path d="M39,13.333C39,20.145 33.478,25.667 26.667,25.667L26.667,27.667C34.583,27.667 41,21.249 41,13.333L39,13.333ZM26.667,25.667C19.855,25.667 14.333,20.145 14.333,13.333L12.333,13.333C12.333,21.249 18.751,27.667 26.667,27.667L26.667,25.667ZM14.333,13.333C14.333,6.522 19.855,1 26.667,1L26.667,-1C18.751,-1 12.333,5.417 12.333,13.333L14.333,13.333ZM26.667,1C33.478,1 39,6.522 39,13.333L41,13.333C41,5.417 34.583,-1 26.667,-1L26.667,1Z" fill="#222222"/>
</svg>
