<svg width="48" height="54" viewBox="0 0 48 54" fill="none" xmlns="http://www.w3.org/2000/svg" xmlns:xlink="http://www.w3.org/1999/xlink">
<path d="M0.479,46.444C0.479,47.549 1.375,48.444 2.479,48.444C3.584,48.444 4.479,47.549 4.479,46.444L0.479,46.444ZM43.681,40.095C43.681,41.2 44.577,42.095 45.681,42.095C46.786,42.095 47.681,41.2 47.681,40.095L43.681,40.095ZM4.479,46.444L4.479,7.556L0.479,7.556L0.479,46.444L4.479,46.444ZM4.479,7.556C4.479,5.538 6.055,4 7.88,4L7.88,0C3.74,0 0.479,3.437 0.479,7.556L4.479,7.556ZM7.88,4L44.061,4L44.061,0L7.88,0L7.88,4ZM44.061,4C43.798,4 43.681,3.797 43.681,3.667L47.681,3.667C47.681,1.696 46.114,0 44.061,0L44.061,4ZM43.681,3.667L43.681,40.095L47.681,40.095L47.681,3.667L43.681,3.667Z" fill="#12762D"/>
<path d="M16.756,32.015C16.457,33.079 17.078,34.183 18.141,34.481C19.205,34.78 20.309,34.159 20.607,33.096L16.756,32.015ZM28.138,20.137C28.95,19.388 29.001,18.123 28.252,17.311C27.503,16.499 26.238,16.448 25.426,17.196L28.138,20.137ZM18.681,32.556C20.607,33.096 20.607,33.096 20.607,33.097C20.607,33.097 20.607,33.097 20.607,33.097C20.607,33.097 20.607,33.098 20.607,33.098C20.606,33.098 20.607,33.097 20.607,33.096C20.607,33.095 20.609,33.091 20.61,33.085C20.614,33.073 20.619,33.053 20.628,33.025C20.644,32.97 20.67,32.885 20.705,32.772C20.776,32.546 20.886,32.21 21.035,31.788C21.334,30.943 21.792,29.758 22.417,28.418C23.683,25.708 25.575,22.5 28.138,20.137L25.426,17.196C22.318,20.062 20.16,23.798 18.793,26.726C18.103,28.204 17.598,29.511 17.264,30.453C17.097,30.925 16.973,31.306 16.889,31.574C16.847,31.708 16.815,31.814 16.793,31.889C16.782,31.926 16.773,31.955 16.767,31.976C16.764,31.987 16.761,31.996 16.759,32.002C16.759,32.005 16.758,32.008 16.757,32.01C16.757,32.011 16.757,32.012 16.756,32.013C16.756,32.013 16.756,32.014 16.756,32.014C16.756,32.015 16.756,32.015 18.681,32.556Z" fill="#12762D"/>
<path d="M26.246,28.179L26.054,26.188L26.053,26.188L26.246,28.179ZM25.883,28.214L26.075,30.205L26.076,30.205L25.883,28.214ZM16.796,20.508L18.786,20.317L18.786,20.317L16.796,20.508ZM24.251,11.203L24.444,13.194L24.444,13.194L24.251,11.203ZM32.313,10.424L32.12,8.433L32.12,8.433L32.313,10.424ZM33.342,11.296L35.332,11.105L35.332,11.105L33.342,11.296ZM34.029,18.465L36.02,18.274L36.02,18.274L34.029,18.465ZM26.053,26.188L25.69,26.224L26.076,30.205L26.44,30.17L26.053,26.188ZM25.691,26.224C22.274,26.554 19.137,23.967 18.786,20.317L14.805,20.699C15.356,26.444 20.355,30.758 26.075,30.205L25.691,26.224ZM18.786,20.317C18.436,16.666 21.026,13.524 24.444,13.194L24.059,9.212C18.34,9.765 14.254,14.955 14.805,20.699L18.786,20.317ZM24.444,13.194L32.505,12.414L32.12,8.433L24.059,9.212L24.444,13.194ZM32.505,12.414C31.87,12.476 31.4,12.002 31.351,11.487L35.332,11.105C35.181,9.526 33.79,8.272 32.12,8.433L32.505,12.414ZM31.351,11.487L32.038,18.656L36.02,18.274L35.332,11.105L31.351,11.487ZM32.038,18.656C32.408,22.514 29.672,25.839 26.054,26.188L26.439,30.17C32.358,29.598 36.591,24.225 36.02,18.274L32.038,18.656Z" fill="#12762D"/>
<line x1="7.879" y1="38.889" x2="45.681" y2="38.889" stroke="#12762D" stroke-width="2" stroke-miterlimit="3.999327" stroke-linecap="round"/>
<line x1="7.879" y1="50" x2="45.681" y2="50" stroke="#12762D" stroke-width="2" stroke-miterlimit="3.999327" stroke-linecap="round"/>
<path d="M7.88,54C8.984,54 9.88,53.105 9.88,52C9.88,50.895 8.984,50 7.88,50L7.88,54ZM7.88,42.889C8.984,42.889 9.88,41.993 9.88,40.889C9.88,39.784 8.984,38.889 7.88,38.889L7.88,42.889ZM7.88,50C6.055,50 4.479,48.462 4.479,46.444L0.479,46.444C0.479,50.564 3.74,54 7.88,54L7.88,50ZM4.479,46.444C4.479,44.427 6.055,42.889 7.88,42.889L7.88,38.889C3.74,38.889 0.479,42.325 0.479,46.444L4.479,46.444Z" fill="#12762D"/>
</svg>
