<svg width="26" height="30" viewBox="0 0 26 30" fill="none" xmlns="http://www.w3.org/2000/svg" xmlns:xlink="http://www.w3.org/1999/xlink">
<path d="M20.533,26.516C20.533,27.621 21.429,28.516 22.533,28.516C23.638,28.516 24.533,27.621 24.533,26.516L20.533,26.516ZM17.2,18.344L17.2,16.344L17.2,18.344ZM6.533,18.344L6.533,16.344L6.533,18.344ZM1.2,23.792L-0.8,23.792L1.2,23.792ZM-0.8,26.516C-0.8,27.621 0.095,28.516 1.2,28.516C2.305,28.516 3.2,27.621 3.2,26.516L-0.8,26.516ZM24.533,26.516L24.533,23.792L20.533,23.792L20.533,26.516L24.533,26.516ZM24.533,23.792C24.533,21.83 23.771,19.94 22.4,18.541L19.542,21.339C20.172,21.982 20.533,22.864 20.533,23.792L24.533,23.792ZM22.4,18.541C21.029,17.139 19.159,16.344 17.2,16.344L17.2,20.344C18.07,20.344 18.913,20.697 19.542,21.339L22.4,18.541ZM17.2,16.344L6.533,16.344L6.533,20.344L17.2,20.344L17.2,16.344ZM6.533,16.344C4.574,16.344 2.705,17.139 1.333,18.541L4.191,21.339C4.82,20.697 5.663,20.344 6.533,20.344L6.533,16.344ZM1.333,18.541C-0.038,19.94 -0.8,21.83 -0.8,23.792L3.2,23.792C3.2,22.864 3.561,21.982 4.191,21.339L1.333,18.541ZM-0.8,23.792L-0.8,26.516L3.2,26.516L3.2,23.792L-0.8,23.792Z" fill="#222222"/>
<path d="M15.2,7.448C15.2,9.393 13.668,10.896 11.867,10.896L11.867,14.896C15.957,14.896 19.2,11.521 19.2,7.448L15.2,7.448ZM11.867,10.896C10.065,10.896 8.533,9.393 8.533,7.448L4.533,7.448C4.533,11.521 7.777,14.896 11.867,14.896L11.867,10.896ZM8.533,7.448C8.533,5.503 10.065,4 11.867,4L11.867,0C7.777,0 4.533,3.375 4.533,7.448L8.533,7.448ZM11.867,4C13.668,4 15.2,5.503 15.2,7.448L19.2,7.448C19.2,3.375 15.957,0 11.867,0L11.867,4Z" fill="#222222"/>
</svg>
