<svg width="62" height="62" viewBox="0 0 62 62" fill="none" xmlns="http://www.w3.org/2000/svg" xmlns:xlink="http://www.w3.org/1999/xlink">
<path d="M20,61C20.552,61 21,60.552 21,60C21,59.448 20.552,59 20,59L20,61ZM0,53.333L-1,53.333L0,53.333ZM6.667,0L6.667,-1L6.667,0ZM20,1C20.552,1 21,0.552 21,0C21,-0.552 20.552,-1 20,-1L20,1ZM20,59L6.667,59L6.667,61L20,61L20,59ZM6.667,59C5.164,59 3.722,58.403 2.66,57.34L1.246,58.754C2.683,60.192 4.633,61 6.667,61L6.667,59ZM2.66,57.34C1.597,56.278 1,54.836 1,53.333L-1,53.333C-1,55.367 -0.192,57.317 1.246,58.754L2.66,57.34ZM1,53.333L1,6.667L-1,6.667L-1,53.333L1,53.333ZM1,6.667C1,5.164 1.597,3.722 2.66,2.66L1.246,1.246C-0.192,2.683 -1,4.633 -1,6.667L1,6.667ZM2.66,2.66C3.722,1.597 5.164,1 6.667,1L6.667,-1C4.633,-1 2.683,-0.192 1.246,1.246L2.66,2.66ZM6.667,1L20,1L20,-1L6.667,-1L6.667,1Z" fill="#222222"/>
<path d="M42.626,45.959C42.236,46.35 42.236,46.983 42.626,47.373C43.017,47.764 43.65,47.764 44.04,47.373L42.626,45.959ZM60,30L60.707,30.707C61.098,30.316 61.098,29.683 60.707,29.293L60,30ZM44.04,12.626C43.65,12.235 43.017,12.235 42.626,12.626C42.236,13.016 42.236,13.65 42.626,14.04L44.04,12.626ZM44.04,47.373L60.707,30.707L59.293,29.293L42.626,45.959L44.04,47.373ZM60.707,29.293L44.04,12.626L42.626,14.04L59.293,30.707L60.707,29.293Z" fill="#222222"/>
<line x1="20" y1="29" x2="60" y2="29" stroke="#222222" stroke-width="1" stroke-miterlimit="3.999327" stroke-linecap="round" stroke-linejoin="round"/>
</svg>
