<svg width="40" height="44" viewBox="0 0 40 44" fill="none" xmlns="http://www.w3.org/2000/svg" xmlns:xlink="http://www.w3.org/1999/xlink">
<path d="M34.776,42C34.776,43.104 35.671,44 36.776,44C37.88,44 38.776,43.104 38.776,42L34.776,42ZM28.033,28.667L28.033,26.667L28.033,28.667ZM10.546,28.667L10.546,26.667L10.546,28.667ZM1.803,37.555L-0.197,37.555L1.803,37.555ZM-0.197,42C-0.197,43.104 0.699,44 1.803,44C2.908,44 3.803,43.104 3.803,42L-0.197,42ZM38.776,42L38.776,37.555L34.776,37.555L34.776,42L38.776,42ZM38.776,37.555C38.776,34.678 37.652,31.912 35.641,29.868L32.789,32.672C34.058,33.962 34.776,35.718 34.776,37.555L38.776,37.555ZM35.641,29.868C33.629,27.822 30.893,26.667 28.033,26.667L28.033,30.667C29.81,30.667 31.522,31.384 32.789,32.672L35.641,29.868ZM28.033,26.667L10.546,26.667L10.546,30.667L28.033,30.667L28.033,26.667ZM10.546,26.667C7.686,26.667 4.95,27.822 2.938,29.868L5.79,32.672C7.057,31.384 8.769,30.667 10.546,30.667L10.546,26.667ZM2.938,29.868C0.927,31.912 -0.197,34.678 -0.197,37.555L3.803,37.555C3.803,35.718 4.522,33.962 5.79,32.672L2.938,29.868ZM-0.197,37.555L-0.197,42L3.803,42L3.803,37.555L-0.197,37.555Z" fill="#A8A6A7"/>
<path d="M26.033,10.889C26.033,14.725 22.983,17.778 19.29,17.778L19.29,21.778C25.254,21.778 30.033,16.871 30.033,10.889L26.033,10.889ZM19.29,17.778C15.596,17.778 12.546,14.725 12.546,10.889L8.546,10.889C8.546,16.871 13.325,21.778 19.29,21.778L19.29,17.778ZM12.546,10.889C12.546,7.053 15.596,4 19.29,4L19.29,0C13.325,0 8.546,4.906 8.546,10.889L12.546,10.889ZM19.29,4C22.983,4 26.033,7.053 26.033,10.889L30.033,10.889C30.033,4.906 25.254,0 19.29,0L19.29,4Z" fill="#A8A6A7"/>
</svg>
