<svg xmlns="http://www.w3.org/2000/svg" xmlns:xlink="http://www.w3.org/1999/xlink" xmlns:svgjs="http://svgjs.dev/svgjs" version="1.1" viewBox="-0.19 -0.5 1212 936.97"><g transform="matrix(1,0,0,1,-0.9090909090909918,-1.5145161290323017)"><svg xmlns="http://www.w3.org/2000/svg" xmlns:xlink="http://www.w3.org/1999/xlink" viewBox="0 0 396 248" data-background-color="#ffffff" preserveAspectRatio="xMidYMid meet" height="939" width="1500"><g id="tight-bounds" transform="matrix(1,0,0,1,0.2400000000000091,0.4000000000000057)"><svg viewBox="0 0 395.52 247.2" height="247.2" width="395.52"><g><svg/></g><g><svg viewBox="0 0 395.52 247.2" height="247.2" width="395.52"><g transform="matrix(1,0,0,1,75.54432,90.91298343403066)"><svg viewBox="0 0 244.43135999999998 65.37403313193866" height="65.37403313193866" width="244.43135999999998"><g><svg viewBox="0 0 244.43135999999998 65.37403313193866" height="65.37403313193866" width="244.43135999999998"><g><svg viewBox="0 0 329.1641585070633 88.03612025923132" height="65.37403313193866" width="244.43135999999998"><g transform="matrix(1,0,0,1,84.73279850706335,18.537272789751313)"><svg viewBox="0 0 244.43135999999996 50.9615746797287" height="50.9615746797287" width="244.43135999999996"><g id="textblocktransform"><svg viewBox="0 0 244.43135999999996 50.9615746797287" height="50.9615746797287" width="244.43135999999996" id="textblock"><g><svg viewBox="0 0 244.43135999999996 50.9615746797287" height="50.9615746797287" width="244.43135999999996"><g transform="matrix(1,0,0,1,0,0)"><svg width="244.43135999999996" viewBox="2.1499999999999995 -40.5 199.04 41.5" height="50.9615746797287" data-palette-color="#3d8214"><path d="M6.65-8.1L6.65-8.1 6.65-37.6 2.6-38.15Q2.3-39.05 2.6-39.95L2.6-39.95 9.45-39.8 29.65-39.8 29.7-28.2Q28.6-28 27.85-28.2L27.85-28.2 25.5-37.25 12-37.25 12-22.25 20-22.4 21.15-27.3Q21.9-27.5 23-27.3L23-27.3Q22.8-24.5 22.8-20.85L22.8-20.85Q22.8-17.5 22.95-14.35L22.95-14.35Q22.05-14.05 21.15-14.35L21.15-14.35 20.05-19.55 12-19.7 12-2.55 27-2.55 29.35-11.6Q30.1-11.8 31.2-11.6L31.2-11.6 31.15 0 9.45 0 2.3 0.15Q2-0.75 2.3-1.65L2.3-1.65 6.45-2.2Q6.65-4.75 6.65-8.1ZM57.85-20.3L57.85-20.3Q56.8-19.2 52.9-19.25L52.9-19.25Q52.1-25.55 48.35-25.55L48.35-25.55Q45.4-25.55 43.35-22.15 41.3-18.75 41.3-13.2L41.3-13.2Q41.3-7.5 43.1-4.42 44.9-1.35 48.5-1.35L48.5-1.35Q52.3-1.35 55.95-4.45L55.95-4.45Q56.7-4 57.1-2.9L57.1-2.9Q53.45 1 47.95 1L47.95 1Q42.7 1 39.35-2.63 36-6.25 36-13.3L36-13.3Q36-20.05 39.72-23.88 43.45-27.7 48.25-27.7L48.25-27.7Q52.05-27.7 54.95-25.8 57.85-23.9 57.85-20.3ZM61.5-13.3L61.5-13.3Q61.5-16.3 62.37-18.93 63.25-21.55 64.9-23.5 66.55-25.45 68.87-26.58 71.2-27.7 74.09-27.7L74.09-27.7Q76.95-27.7 79.3-26.58 81.65-25.45 83.32-23.5 85-21.55 85.9-18.93 86.8-16.3 86.8-13.3L86.8-13.3Q86.8-10.2 85.87-7.6 84.95-5 83.27-3.08 81.59-1.15 79.25-0.08 76.9 1 74.09 1L74.09 1Q71.15 1 68.82-0.05 66.5-1.1 64.87-3 63.25-4.9 62.37-7.53 61.5-10.15 61.5-13.3ZM68.8-22.5L68.8-22.5Q66.65-19.45 66.65-13.3L66.65-13.3Q66.65-10.25 67.22-7.95 67.8-5.65 68.8-4.13 69.8-2.6 71.15-1.85 72.5-1.1 74.09-1.1L74.09-1.1Q75.65-1.1 77.05-1.85 78.45-2.6 79.45-4.13 80.45-5.65 81.05-7.95 81.65-10.25 81.65-13.3L81.65-13.3Q81.65-16.35 81.05-18.68 80.45-21 79.42-22.53 78.4-24.05 77.02-24.83 75.65-25.6 74.09-25.6L74.09-25.6Q71-25.6 68.8-22.5ZM90.29 0.1L90.29 0.1Q89.99-0.8 90.29-1.7L90.29-1.7 94.44-2.3Q94.64-4.2 94.64-8.15L94.64-8.15 94.64-37.6 90.59-38.1Q90.39-38.85 90.59-39.95L90.59-39.95Q91.34-39.9 92.94-39.9L92.94-39.9Q96.14-39.9 101.22-40.18 106.29-40.45 107.04-40.45L107.04-40.45Q116.84-40.45 121.89-35.15 126.94-29.85 126.94-20.9L126.94-20.9Q126.94-11.8 122.19-5.8 117.44 0.2 108.89 0.2L108.89 0.2Q106.04 0.2 101.34 0.13 96.64 0.05 94.59 0.05L94.59 0.05Q91.69 0.05 90.29 0.1ZM106.99-2.2L106.99-2.2Q121.09-2.2 121.09-20.6L121.09-20.6Q121.09-28.55 117.42-33.15 113.74-37.75 106.84-38.05L106.84-38.05Q106.24-38.1 104.99-38.1L104.99-38.1Q102.34-38.1 100.19-37.7L100.19-37.7Q99.99-35.8 99.99-31.65L99.99-31.65 99.99-2.35Q100.59-2.35 102.87-2.27 105.14-2.2 106.99-2.2ZM140.14-18.6L140.14-18.6 140.14-2.55 144.19-1.8Q144.24-1.55 144.27-1.35 144.29-1.15 144.29-0.9L144.29-0.9Q144.29-0.65 144.27-0.38 144.24-0.1 144.19 0.2L144.19 0.2Q141.04 0.05 137.74 0.05L137.74 0.05Q136.59 0.05 134.97 0.08 133.34 0.1 131.24 0.15L131.24 0.15Q131.09-0.3 131.09-0.8L131.09-0.8Q131.09-1.25 131.24-1.8L131.24-1.8 135.19-2.35Q135.29-3.75 135.34-5.33 135.39-6.9 135.39-8.7L135.39-8.7 135.39-19.35Q135.39-22.65 135.24-24.25L135.24-24.25 131.29-24.75Q131.19-25 131.19-25.6L131.19-25.6Q131.19-25.85 131.19-26.1 131.19-26.35 131.29-26.65L131.29-26.65Q134.69-26.85 139.89-27.7L139.89-27.7Q140.34-27.2 140.39-26.7L140.39-26.7Q140.14-25.3 140.14-18.6ZM132.84-36.45L132.84-36.45Q132.74-36.7 132.74-36.98 132.74-37.25 132.74-37.5L132.74-37.5Q132.74-38.85 133.87-39.68 134.99-40.5 136.64-40.5L136.64-40.5Q138.19-40.5 139.17-39.58 140.14-38.65 140.14-37.05L140.14-37.05Q140.14-35.75 139.02-34.95 137.89-34.15 136.14-34.15L136.14-34.15Q134.94-34.15 134.02-34.75 133.09-35.35 132.84-36.45ZM167.54-8.7L167.54-17.85Q167.54-21.7 166.51-23.25 165.49-24.8 163.09-24.8L163.09-24.8Q159.39-24.8 155.64-19.25L155.64-19.25 155.64-2.55 159.69-1.8Q159.89-1 159.69 0.2L159.69 0.2Q156.54 0.05 153.24 0.05L153.24 0.05Q150.94 0.05 146.74 0.15L146.74 0.15Q146.44-0.8 146.74-1.8L146.74-1.8 150.69-2.35Q150.89-5.1 150.89-8.7L150.89-8.7 150.89-22.4Q150.89-23.4 150.74-24.25L150.74-24.25 146.79-24.75Q146.59-25.5 146.79-26.65L146.79-26.65Q150.24-26.9 155.39-27.7L155.39-27.7Q155.84-27.2 155.89-26.7L155.89-26.7Q155.64-25.4 155.64-22.25L155.64-22.25Q159.59-27.7 164.54-27.7L164.54-27.7Q172.29-27.7 172.29-20.35L172.29-20.35 172.29-2.55 176.34-1.8Q176.54-1 176.34 0.2L176.34 0.2Q173.19 0.05 169.89 0.05L169.89 0.05Q167.59 0.05 163.39 0.15L163.39 0.15Q163.09-0.8 163.39-1.8L163.39-1.8 167.34-2.35Q167.54-5.1 167.54-8.7L167.54-8.7ZM200.14-14.1L200.14-14.1 184.44-14.1Q183.99-1.35 192.09-1.35L192.09-1.35Q195.53-1.35 199.14-4.4L199.14-4.4Q199.89-3.95 200.29-2.85L200.29-2.85Q196.84 1 191.53 1L191.53 1Q179.34 1 179.34-13.35L179.34-13.35Q179.34-20.15 182.94-23.93 186.53-27.7 191.34-27.7L191.34-27.7Q196.59-27.7 198.89-24.05 201.19-20.4 201.19-14.55L201.19-14.55Q200.69-14.15 200.14-14.1ZM191.24-25.7L191.24-25.7Q188.64-25.7 186.81-23 184.99-20.3 184.59-16.1L184.59-16.1 190.78-16.1Q194.49-16.1 196.09-16.55L196.09-16.55Q196.09-20.65 194.84-23.18 193.59-25.7 191.24-25.7Z" opacity="1" transform="matrix(1,0,0,1,0,0)" fill="#3d8214" class="wordmark-text-0" data-fill-palette-color="primary" id="text-0"/></svg></g></svg></g></svg></g></svg></g><g><svg viewBox="0 0 72.70199380297171 88.03612025923132" height="88.03612025923132" width="72.70199380297171"><g><svg xmlns="http://www.w3.org/2000/svg" xmlns:xlink="http://www.w3.org/1999/xlink" version="1.1" x="0" y="0" viewBox="16.959 10.000357339164584 66.081 80.01864266083543" style="enable-background:new 0 0 100 100;" xml:space="preserve" height="88.03612025923132" width="72.70199380297171" class="icon-icon-0" data-fill-palette-color="accent" id="icon-0"><path d="M50.008 90.019A1 1 0 0 0 51.008 89.019V67.38C68.763 66.846 83.04 52.236 83.04 34.354A1 1 0 0 0 82.181 33.364C74.715 32.314 68.364 33.105 63.22 35.708 63.247 31.128 62.12 19.125 50.612 10.209A1 1 0 0 0 49.388 10.21C37.88 19.125 36.753 31.128 36.778 35.707 31.636 33.104 25.285 32.314 17.82 33.364A1 1 0 0 0 16.959 34.354C16.959 52.242 31.245 66.855 49.008 67.381V89.019A1 1 0 0 0 50.008 90.019M81.028 35.23C80.574 51.608 67.369 64.854 51.009 65.38V61.402C51.008 61.358 51.008 61.238 51.002 61.05 51.087 58.878 51.919 47.256 59.915 40.315 65.051 35.857 72.153 34.148 81.029 35.23M50 12.277C61.369 21.53 61.313 34.325 61.178 36.885A22.5 22.5 0 0 0 58.592 38.815C53.522 43.223 51.13 49.202 50 53.905 48.871 49.201 46.478 43.222 41.408 38.814A22.5 22.5 0 0 0 38.82 36.884C38.681 34.327 38.604 21.55 50 12.277M18.971 35.23C27.85 34.148 34.948 35.857 40.085 40.315 48.082 47.257 48.913 58.88 48.998 61.05 48.993 61.238 48.992 61.36 48.992 61.403 48.992 61.463 48.998 61.523 49.008 61.58V65.38C32.64 64.863 19.427 51.613 18.97 35.23" fill="#3d8214" data-fill-palette-color="accent"/></svg></g></svg></g></svg></g></svg></g></svg></g><g><path d="M0 123.6c0-68.262 55.338-123.6 123.6-123.6 55.316 0 102.146 36.338 117.918 86.446l-1.79 0c-15.712-49.151-61.764-84.74-116.128-84.74-67.32 0-121.894 54.574-121.894 121.894 0 67.32 54.574 121.894 121.894 121.894 54.364 0 100.415-35.589 116.128-84.74l1.79 0c-15.773 50.108-62.602 86.446-117.918 86.446-68.262 0-123.6-55.338-123.6-123.6z" fill="#e6720e" stroke="transparent" data-fill-palette-color="tertiary"/></g></svg></g><defs/></svg><rect width="395.52" height="247.2" fill="none" stroke="none" visibility="hidden"/></g></svg></g></svg>