<svg width="24" height="24" viewBox="0 0 24 24" fill="none" xmlns="http://www.w3.org/2000/svg" xmlns:xlink="http://www.w3.org/1999/xlink">
<path d="M21.6,7.2L21.6,3.6L19.2,3.6L19.2,4.8L16.8,4.8L16.8,3.6L7.2,3.6L7.2,4.8L4.8,4.8L4.8,3.6L2.4,3.6L2.4,7.2L21.6,7.2ZM21.6,9.6L2.4,9.6L2.4,21.6L21.6,21.6L21.6,9.6ZM19.2,1.2L21.6,1.2C22.925,1.2 24,2.275 24,3.6L24,21.6C24,22.925 22.925,24 21.6,24L2.4,24C1.075,24 0,22.925 0,21.6L0,3.6C0,2.275 1.075,1.2 2.4,1.2L4.8,1.2L4.8,0L7.2,0L7.2,1.2L16.8,1.2L16.8,0L19.2,0L19.2,1.2ZM8.4,14.4L6,14.4L6,12L8.4,12L8.4,14.4ZM13.2,14.4L10.8,14.4L10.8,12L13.2,12L13.2,14.4ZM18,14.4L15.6,14.4L15.6,12L18,12L18,14.4ZM8.4,19.2L6,19.2L6,16.8L8.4,16.8L8.4,19.2ZM13.2,19.2L10.8,19.2L10.8,16.8L13.2,16.8L13.2,19.2Z" clip-rule="evenodd" fill-rule="evenodd" fill="#222222"/>
</svg>
