<svg width="80" height="80" viewBox="0 0 80 80" fill="none" xmlns="http://www.w3.org/2000/svg" xmlns:xlink="http://www.w3.org/1999/xlink">
<path d="M72.275,21.333L32.497,21.333L28.413,12.444L29.212,12.444C30.189,12.444 30.988,11.644 30.988,10.667L30.988,1.778C30.988,0.8 30.189,0 29.212,0L7.902,0C6.926,0 6.127,0.8 6.127,1.778L6.127,10.667C6.127,11.644 6.926,12.444 7.902,12.444L8.701,12.444L0.089,31.289C0.089,31.378 0.089,31.378 0,31.467C0,31.556 0,31.556 0,31.644C0,31.733 0,31.733 0,31.822C0,31.911 0,32 0,32L0,72.889C0,73.867 0.799,74.667 1.776,74.667L32.142,74.667C33.829,77.867 37.203,80 41.021,80L42.886,80C44.306,80 45.727,79.733 47.059,79.111C48.391,79.644 49.723,80 51.232,80L53.097,80C57.003,80 60.377,77.867 61.976,74.667L72.453,74.667C73.43,74.667 74.229,73.867 74.229,72.889L74.229,36.267C77.514,35.467 80,32.444 80,28.889C79.822,24.711 76.448,21.333 72.275,21.333ZM9.678,3.556L27.436,3.556L27.436,8.889L9.678,8.889L9.678,3.556ZM33.652,56.533C31.964,58.311 30.988,60.622 30.988,63.111L30.988,70.222C30.988,70.489 30.988,70.844 30.988,71.111L3.463,71.111L3.463,42.044L7.902,39.911L8.08,39.822C10.122,38.844 12.342,38.489 14.562,38.844C15.716,39.022 16.781,39.289 17.847,39.822C21.931,41.778 26.548,41.778 30.633,39.822L33.74,38.311L33.74,56.533L33.652,56.533ZM33.652,34.4L29.212,36.533L29.034,36.622C26.992,37.6 24.772,37.956 22.553,37.6C21.398,37.422 20.333,37.156 19.267,36.622C15.183,34.667 10.566,34.667 6.482,36.622L3.463,38.044L3.463,32.356L3.64,32L12.608,12.444L24.506,12.444L33.474,32L33.652,32.356L33.652,34.4ZM59.401,70.222C59.401,73.689 56.471,76.444 52.919,76.444L51.054,76.444C49.9,76.444 48.746,76.178 47.769,75.556C47.503,75.378 47.236,75.378 46.881,75.378C46.526,75.378 46.26,75.467 45.993,75.556C45.017,76.089 43.862,76.444 42.708,76.444L40.844,76.444C37.292,76.444 34.362,73.689 34.362,70.222L34.362,63.111C34.362,59.644 37.292,56.889 40.844,56.889L42.708,56.889C43.507,56.889 44.306,57.067 45.105,57.333L45.105,59.556C45.105,60.533 45.905,61.333 46.881,61.333C47.858,61.333 48.657,60.533 48.657,59.556L48.657,57.333C49.367,57.067 50.166,56.889 51.054,56.889L52.919,56.889C56.471,56.889 59.401,59.644 59.401,63.111L59.401,70.222ZM72.275,32.889C71.299,32.889 70.499,33.689 70.499,34.667L70.499,71.111L62.952,71.111C62.952,70.844 62.952,70.489 62.952,70.222L62.952,63.111C62.952,57.689 58.424,53.333 52.919,53.333L51.054,53.333C50.255,53.333 49.456,53.422 48.657,53.6L48.657,51.556C48.657,49.6 50.255,48 52.209,48C53.185,48 53.984,47.2 53.984,46.222C53.984,45.244 53.185,44.444 52.209,44.444C48.302,44.444 45.105,47.644 45.105,51.556L45.105,53.6C44.306,53.422 43.507,53.333 42.708,53.333L40.844,53.333C39.512,53.333 38.18,53.6 37.026,54.044L37.026,32C37.026,31.911 37.026,31.911 37.026,31.822C37.026,31.733 37.026,31.733 37.026,31.644C37.026,31.556 37.026,31.556 37.026,31.467C37.026,31.378 37.026,31.378 36.937,31.289L34.095,24.889L72.275,24.889C74.495,24.889 76.271,26.667 76.271,28.889C76.271,31.111 74.495,32.889 72.275,32.889ZM18.557,46.222C14.118,46.222 10.566,49.778 10.566,54.222C10.566,58.667 14.118,62.222 18.557,62.222C22.997,62.222 26.548,58.667 26.548,54.222C26.548,49.778 22.997,46.222 18.557,46.222ZM18.557,58.667C16.071,58.667 14.118,56.711 14.118,54.222C14.118,51.733 16.071,49.778 18.557,49.778C21.043,49.778 22.997,51.733 22.997,54.222C22.997,56.711 21.043,58.667 18.557,58.667Z" fill="#222222"/>
</svg>
