<svg width="24" height="44" viewBox="0 0 24 44" fill="none" xmlns="http://www.w3.org/2000/svg" xmlns:xlink="http://www.w3.org/1999/xlink">
<path d="M18.642,42.583C18.182,42.585 17.726,42.483 17.31,42.286C16.894,42.088 16.527,41.8 16.237,41.442L1.345,22.942C0.891,22.391 0.643,21.699 0.643,20.984C0.643,20.27 0.891,19.578 1.345,19.026L16.761,0.526C17.285,-0.103 18.037,-0.499 18.852,-0.574C19.667,-0.65 20.479,-0.398 21.109,0.126C21.739,0.649 22.135,1.401 22.21,2.216C22.285,3.032 22.033,3.843 21.51,4.473L7.727,21L21.047,37.526C21.424,37.979 21.664,38.53 21.737,39.115C21.811,39.699 21.716,40.292 21.463,40.824C21.21,41.356 20.81,41.805 20.31,42.116C19.81,42.428 19.231,42.59 18.642,42.583Z" fill="#231F20"/>
</svg>
