<svg width="24" height="44" viewBox="0 0 24 44" fill="none" xmlns="http://www.w3.org/2000/svg" xmlns:xlink="http://www.w3.org/1999/xlink">
<path d="M18.642,42.584C18.182,42.585 17.726,42.483 17.31,42.286C16.894,42.089 16.527,41.8 16.237,41.443L1.345,22.943C0.891,22.391 0.643,21.699 0.643,20.985C0.643,20.271 0.891,19.579 1.345,19.027L16.761,0.527C17.285,-0.103 18.037,-0.499 18.852,-0.574C19.667,-0.649 20.479,-0.397 21.109,0.126C21.739,0.649 22.135,1.402 22.21,2.217C22.285,3.032 22.033,3.844 21.51,4.474L7.727,21L21.047,37.527C21.424,37.979 21.664,38.531 21.737,39.115C21.811,39.699 21.716,40.293 21.463,40.825C21.21,41.357 20.81,41.805 20.31,42.117C19.81,42.428 19.231,42.59 18.642,42.584Z" fill="#231F20"/>
</svg>
