<svg width="28" height="44" viewBox="0 0 28 44" fill="none" xmlns="http://www.w3.org/2000/svg" xmlns:xlink="http://www.w3.org/1999/xlink">
<path d="M2.885,2L2.885,0C1.781,0 0.885,0.895 0.885,2L2.885,2ZM24.743,10.889L26.743,10.889L24.743,10.889ZM22.743,42C22.743,43.105 23.639,44 24.743,44C25.848,44 26.743,43.105 26.743,42L22.743,42ZM18.186,35.333L18.186,33.333L18.186,35.333ZM2.885,35.333L0.885,35.333C0.885,36.438 1.781,37.333 2.885,37.333L2.885,35.333ZM2.885,4L16,4L16,0L2.885,0L2.885,4ZM16,4C17.778,4 19.489,4.718 20.757,6.006L23.608,3.201C21.596,1.155 18.86,0 16,0L16,4ZM20.757,6.006C22.025,7.295 22.743,9.051 22.743,10.889L26.743,10.889C26.743,8.012 25.619,5.246 23.608,3.201L20.757,6.006ZM22.743,10.889L22.743,42L26.743,42L26.743,10.889L22.743,10.889ZM26.743,42C26.743,39.712 25.849,37.511 24.248,35.883L21.397,38.688C22.255,39.561 22.743,40.752 22.743,42L26.743,42ZM24.248,35.883C22.646,34.255 20.466,33.333 18.186,33.333L18.186,37.333C19.384,37.333 20.539,37.817 21.397,38.688L24.248,35.883ZM18.186,33.333L2.885,33.333L2.885,37.333L18.186,37.333L18.186,33.333ZM4.885,35.333L4.885,2L0.885,2L0.885,35.333L4.885,35.333Z" fill="#A8A6A7"/>
</svg>
