<svg width="28" height="44" viewBox="0 0 28 44" fill="none" xmlns="http://www.w3.org/2000/svg" xmlns:xlink="http://www.w3.org/1999/xlink">
<path d="M24.601,2L26.601,2C26.601,0.896 25.706,0 24.601,0L24.601,2ZM11.486,2L11.486,0L11.486,2ZM2.743,10.889L0.743,10.889L2.743,10.889ZM0.743,42C0.743,43.105 1.639,44 2.743,44C3.848,44 4.743,43.105 4.743,42L0.743,42ZM9.3,35.334L9.3,33.334L9.3,35.334ZM24.601,35.334L24.601,37.334C25.706,37.334 26.601,36.438 26.601,35.334L24.601,35.334ZM24.601,0L11.486,0L11.486,4L24.601,4L24.601,0ZM11.486,0C8.626,0 5.89,1.156 3.878,3.201L6.73,6.006C7.997,4.718 9.709,4 11.486,4L11.486,0ZM3.878,3.201C1.867,5.246 0.743,8.012 0.743,10.889L4.743,10.889C4.743,9.051 5.461,7.296 6.73,6.006L3.878,3.201ZM0.743,10.889L0.743,42L4.743,42L4.743,10.889L0.743,10.889ZM4.743,42C4.743,40.752 5.231,39.561 6.09,38.689L3.238,35.884C1.637,37.511 0.743,39.712 0.743,42L4.743,42ZM6.09,38.689C6.947,37.817 8.103,37.334 9.3,37.334L9.3,33.334C7.02,33.334 4.84,34.255 3.238,35.884L6.09,38.689ZM9.3,37.334L24.601,37.334L24.601,33.334L9.3,33.334L9.3,37.334ZM26.601,35.334L26.601,2L22.601,2L22.601,35.334L26.601,35.334Z" fill="#A8A6A7"/>
</svg>
