<svg width="52" height="56" viewBox="0 0 52 56" fill="none" xmlns="http://www.w3.org/2000/svg" xmlns:xlink="http://www.w3.org/1999/xlink">
<path d="M13.667,12.556C13.667,13.66 14.562,14.556 15.667,14.556C16.771,14.556 17.667,13.66 17.667,12.556L13.667,12.556ZM17.667,1C17.667,-0.105 16.771,-1 15.667,-1C14.562,-1 13.667,-0.105 13.667,1L17.667,1ZM34.111,12.556C34.111,13.66 35.006,14.556 36.111,14.556C37.216,14.556 38.111,13.66 38.111,12.556L34.111,12.556ZM38.111,1C38.111,-0.105 37.216,-1 36.111,-1C35.006,-1 34.111,-0.105 34.111,1L38.111,1ZM13.111,22.111C12.007,22.111 11.111,23.007 11.111,24.111C11.111,25.216 12.007,26.111 13.111,26.111L13.111,22.111ZM38.667,26.111C39.771,26.111 40.667,25.216 40.667,24.111C40.667,23.007 39.771,22.111 38.667,22.111L38.667,26.111ZM43.778,6.778L43.778,4.778L43.778,6.778ZM8,6.778L8,4.778L8,6.778ZM2.889,12.556L0.889,12.556L2.889,12.556ZM2.889,47.222L0.889,47.222L2.889,47.222ZM17.667,12.556L17.667,1L13.667,1L13.667,12.556L17.667,12.556ZM38.111,12.556L38.111,1L34.111,1L34.111,12.556L38.111,12.556ZM13.111,26.111L38.667,26.111L38.667,22.111L13.111,22.111L13.111,26.111ZM8,55L43.778,55L43.778,51L8,51L8,55ZM43.778,55C45.748,55 47.581,54.113 48.89,52.633L45.894,49.983C45.286,50.67 44.518,51 43.778,51L43.778,55ZM48.89,52.633C50.192,51.161 50.889,49.211 50.889,47.222L46.889,47.222C46.889,48.298 46.509,49.288 45.894,49.983L48.89,52.633ZM50.889,47.222L50.889,12.556L46.889,12.556L46.889,47.222L50.889,47.222ZM50.889,12.556C50.889,10.567 50.192,8.617 48.89,7.145L45.894,9.795C46.509,10.49 46.889,11.48 46.889,12.556L50.889,12.556ZM48.89,7.145C47.581,5.665 45.748,4.778 43.778,4.778L43.778,8.778C44.518,8.778 45.286,9.108 45.894,9.795L48.89,7.145ZM43.778,4.778L8,4.778L8,8.778L43.778,8.778L43.778,4.778ZM8,4.778C6.029,4.778 4.197,5.665 2.888,7.145L5.884,9.795C6.492,9.108 7.26,8.778 8,8.778L8,4.778ZM2.888,7.145C1.586,8.617 0.889,10.567 0.889,12.556L4.889,12.556C4.889,11.48 5.269,10.49 5.884,9.795L2.888,7.145ZM0.889,12.556L0.889,47.222L4.889,47.222L4.889,12.556L0.889,12.556ZM0.889,47.222C0.889,49.211 1.586,51.161 2.888,52.633L5.884,49.983C5.269,49.288 4.889,48.298 4.889,47.222L0.889,47.222ZM2.888,52.633C4.197,54.113 6.029,55 8,55L8,51C7.26,51 6.492,50.67 5.884,49.983L2.888,52.633Z" fill="#59587E"/>
</svg>
